<mxfile modified="2020-10-24T19:39:03.495Z" host="app.diagrams.net" agent="5.0 (Windows NT 10.0; Win64; x64) AppleWebKit/537.36 (KHTML, like Gecko) Chrome/86.0.4240.111 Safari/537.36 Edg/86.0.622.51" etag="-RB5sivrMjkuVr33XRcI" version="13.8.1" type="github" pages="4">
  <diagram id="Ht1M8jgEwFfnCIfOTk4-" name="Page-1">
    <mxGraphModel dx="1460" dy="794" grid="1" gridSize="10" guides="1" tooltips="1" connect="1" arrows="1" fold="1" page="1" pageScale="1" pageWidth="1169" pageHeight="827" math="0" shadow="0">
      <root>
        <mxCell id="0" />
        <mxCell id="1" parent="0" />
        <mxCell id="-QjtrjUzRDEMRZ5MF8oH-14" value="Amazon SageMaker" style="whiteSpace=wrap;html=1;fillColor=none;fontSize=14;fontColor=#000000;dashed=0;fontStyle=0;align=center;verticalAlign=top;strokeColor=#D86613;gradientColor=none;spacingLeft=0;labelPosition=center;verticalLabelPosition=bottom;" parent="1" vertex="1">
          <mxGeometry x="872.5" y="174.5" width="232" height="160" as="geometry" />
        </mxCell>
        <mxCell id="SCVMTBWpLvtzJIhz15lM-34" value="" style="whiteSpace=wrap;html=1;fillColor=none;fontSize=14;fontColor=#000000;dashed=0;fontStyle=0;align=center;verticalAlign=top;strokeColor=#CCCCCC;gradientColor=none;spacingLeft=0;labelPosition=center;verticalLabelPosition=bottom;" parent="1" vertex="1">
          <mxGeometry x="882.5" y="257.5" width="210" height="70" as="geometry" />
        </mxCell>
        <mxCell id="-QjtrjUzRDEMRZ5MF8oH-1" value="" style="outlineConnect=0;fontColor=#232F3E;gradientColor=none;fillColor=#277116;strokeColor=none;dashed=0;verticalLabelPosition=bottom;verticalAlign=top;align=center;html=1;fontSize=12;fontStyle=0;aspect=fixed;pointerEvents=1;shape=mxgraph.aws4.door_lock;" parent="1" vertex="1">
          <mxGeometry x="64.5" y="260.5" width="78" height="78" as="geometry" />
        </mxCell>
        <mxCell id="-QjtrjUzRDEMRZ5MF8oH-2" value="" style="outlineConnect=0;fontColor=#232F3E;gradientColor=none;fillColor=#277116;strokeColor=none;dashed=0;verticalLabelPosition=bottom;verticalAlign=top;align=center;html=1;fontSize=12;fontStyle=0;aspect=fixed;pointerEvents=1;shape=mxgraph.aws4.car;" parent="1" vertex="1">
          <mxGeometry x="64.5" y="356" width="78" height="78" as="geometry" />
        </mxCell>
        <mxCell id="-QjtrjUzRDEMRZ5MF8oH-3" value="" style="outlineConnect=0;fontColor=#232F3E;gradientColor=none;fillColor=#277116;strokeColor=none;dashed=0;verticalLabelPosition=bottom;verticalAlign=top;align=center;html=1;fontSize=12;fontStyle=0;aspect=fixed;pointerEvents=1;shape=mxgraph.aws4.camera;" parent="1" vertex="1">
          <mxGeometry x="64.5" y="451.5" width="78" height="78" as="geometry" />
        </mxCell>
        <mxCell id="-QjtrjUzRDEMRZ5MF8oH-4" value="" style="outlineConnect=0;fontColor=#232F3E;gradientColor=none;fillColor=#277116;strokeColor=none;dashed=0;verticalLabelPosition=bottom;verticalAlign=top;align=center;html=1;fontSize=12;fontStyle=0;aspect=fixed;pointerEvents=1;shape=mxgraph.aws4.utility;" parent="1" vertex="1">
          <mxGeometry x="165.5" y="306.5" width="78" height="78" as="geometry" />
        </mxCell>
        <mxCell id="-QjtrjUzRDEMRZ5MF8oH-5" value="" style="outlineConnect=0;fontColor=#232F3E;gradientColor=none;fillColor=#277116;strokeColor=none;dashed=0;verticalLabelPosition=bottom;verticalAlign=top;align=center;html=1;fontSize=12;fontStyle=0;aspect=fixed;pointerEvents=1;shape=mxgraph.aws4.coffee_pot;" parent="1" vertex="1">
          <mxGeometry x="166.5" y="410.5" width="78" height="78" as="geometry" />
        </mxCell>
        <mxCell id="-QjtrjUzRDEMRZ5MF8oH-6" value="" style="outlineConnect=0;fontColor=#232F3E;gradientColor=none;fillColor=#277116;strokeColor=none;dashed=0;verticalLabelPosition=bottom;verticalAlign=top;align=center;html=1;fontSize=12;fontStyle=0;aspect=fixed;pointerEvents=1;shape=mxgraph.aws4.lightbulb;" parent="1" vertex="1">
          <mxGeometry x="263.5" y="260.5" width="78" height="78" as="geometry" />
        </mxCell>
        <mxCell id="-QjtrjUzRDEMRZ5MF8oH-7" value="" style="outlineConnect=0;fontColor=#232F3E;gradientColor=none;fillColor=#277116;strokeColor=none;dashed=0;verticalLabelPosition=bottom;verticalAlign=top;align=center;html=1;fontSize=12;fontStyle=0;aspect=fixed;pointerEvents=1;shape=mxgraph.aws4.house;" parent="1" vertex="1">
          <mxGeometry x="261.5" y="356" width="78" height="78" as="geometry" />
        </mxCell>
        <mxCell id="-QjtrjUzRDEMRZ5MF8oH-8" value="" style="outlineConnect=0;fontColor=#232F3E;gradientColor=none;fillColor=#277116;strokeColor=none;dashed=0;verticalLabelPosition=bottom;verticalAlign=top;align=center;html=1;fontSize=12;fontStyle=0;aspect=fixed;pointerEvents=1;shape=mxgraph.aws4.thermostat;" parent="1" vertex="1">
          <mxGeometry x="261.5" y="451.5" width="78" height="78" as="geometry" />
        </mxCell>
        <mxCell id="-QjtrjUzRDEMRZ5MF8oH-9" value="1" style="rounded=1;whiteSpace=wrap;html=1;fillColor=#007CBD;strokeColor=none;fontColor=#FFFFFF;fontStyle=1;fontSize=22;" parent="1" vertex="1">
          <mxGeometry x="223.5" y="211.5" width="40" height="38" as="geometry" />
        </mxCell>
        <mxCell id="-QjtrjUzRDEMRZ5MF8oH-10" value="ML Model Executable" style="outlineConnect=0;fontColor=#232F3E;gradientColor=none;fillColor=#116D5B;strokeColor=none;dashed=0;verticalLabelPosition=bottom;verticalAlign=top;align=center;html=1;fontSize=12;fontStyle=0;aspect=fixed;pointerEvents=1;shape=mxgraph.aws4.sagemaker_model;" parent="1" vertex="1">
          <mxGeometry x="473.5" y="244.5" width="78" height="78" as="geometry" />
        </mxCell>
        <mxCell id="-QjtrjUzRDEMRZ5MF8oH-11" value="AWS Lambda Function" style="outlineConnect=0;fontColor=#232F3E;gradientColor=none;fillColor=#277116;strokeColor=none;dashed=0;verticalLabelPosition=bottom;verticalAlign=top;align=center;html=1;fontSize=12;fontStyle=0;aspect=fixed;pointerEvents=1;shape=mxgraph.aws4.lambda_function;" parent="1" vertex="1">
          <mxGeometry x="473.5" y="349.5" width="78" height="78" as="geometry" />
        </mxCell>
        <mxCell id="-QjtrjUzRDEMRZ5MF8oH-12" value="AWS IoT Greengrass Core" style="outlineConnect=0;fontColor=#232F3E;gradientColor=#60A337;gradientDirection=north;fillColor=#277116;strokeColor=#ffffff;dashed=0;verticalLabelPosition=bottom;verticalAlign=top;align=center;html=1;fontSize=12;fontStyle=0;aspect=fixed;shape=mxgraph.aws4.resourceIcon;resIcon=mxgraph.aws4.greengrass;" parent="1" vertex="1">
          <mxGeometry x="473.5" y="457.5" width="78" height="78" as="geometry" />
        </mxCell>
        <mxCell id="-QjtrjUzRDEMRZ5MF8oH-16" value="AWS IoT Core" style="outlineConnect=0;fontColor=#232F3E;gradientColor=#60A337;gradientDirection=north;fillColor=#277116;strokeColor=#ffffff;dashed=0;verticalLabelPosition=bottom;verticalAlign=top;align=center;html=1;fontSize=12;fontStyle=0;aspect=fixed;shape=mxgraph.aws4.resourceIcon;resIcon=mxgraph.aws4.internet_of_things;" parent="1" vertex="1">
          <mxGeometry x="745.5" y="451.5" width="78" height="78" as="geometry" />
        </mxCell>
        <mxCell id="-QjtrjUzRDEMRZ5MF8oH-17" value="AWS IoT Analytics" style="outlineConnect=0;fontColor=#232F3E;gradientColor=#60A337;gradientDirection=north;fillColor=#277116;strokeColor=#ffffff;dashed=0;verticalLabelPosition=bottom;verticalAlign=top;align=center;html=1;fontSize=12;fontStyle=0;aspect=fixed;shape=mxgraph.aws4.resourceIcon;resIcon=mxgraph.aws4.iot_analytics;" parent="1" vertex="1">
          <mxGeometry x="949.5" y="451.5" width="78" height="78" as="geometry" />
        </mxCell>
        <mxCell id="-QjtrjUzRDEMRZ5MF8oH-18" value="ML Model Executable" style="outlineConnect=0;fontColor=#232F3E;gradientColor=none;fillColor=#116D5B;strokeColor=none;dashed=0;verticalLabelPosition=bottom;verticalAlign=top;align=center;html=1;fontSize=12;fontStyle=0;aspect=fixed;pointerEvents=1;shape=mxgraph.aws4.sagemaker_model;" parent="1" vertex="1">
          <mxGeometry x="136.5" y="691.5" width="78" height="78" as="geometry" />
        </mxCell>
        <mxCell id="-QjtrjUzRDEMRZ5MF8oH-19" value="AWS IoT Greengrass Core" style="outlineConnect=0;fontColor=#232F3E;gradientColor=#60A337;gradientDirection=north;fillColor=#277116;strokeColor=#ffffff;dashed=0;verticalLabelPosition=bottom;verticalAlign=top;align=center;html=1;fontSize=12;fontStyle=0;aspect=fixed;shape=mxgraph.aws4.resourceIcon;resIcon=mxgraph.aws4.iot_core;" parent="1" vertex="1">
          <mxGeometry x="137.5" y="796" width="78" height="78" as="geometry" />
        </mxCell>
        <mxCell id="-QjtrjUzRDEMRZ5MF8oH-20" value="Video Camera" style="outlineConnect=0;fontColor=#232F3E;gradientColor=none;fillColor=#277116;strokeColor=none;dashed=0;verticalLabelPosition=bottom;verticalAlign=top;align=center;html=1;fontSize=12;fontStyle=0;aspect=fixed;pointerEvents=1;shape=mxgraph.aws4.camera;" parent="1" vertex="1">
          <mxGeometry x="137.5" y="903.5" width="78" height="78" as="geometry" />
        </mxCell>
        <mxCell id="-QjtrjUzRDEMRZ5MF8oH-21" value="AWS IoT Core" style="outlineConnect=0;fontColor=#232F3E;gradientColor=#60A337;gradientDirection=north;fillColor=#277116;strokeColor=#ffffff;dashed=0;verticalLabelPosition=bottom;verticalAlign=top;align=center;html=1;fontSize=12;fontStyle=0;aspect=fixed;shape=mxgraph.aws4.resourceIcon;resIcon=mxgraph.aws4.internet_of_things;" parent="1" vertex="1">
          <mxGeometry x="352.5" y="711.5" width="78" height="78" as="geometry" />
        </mxCell>
        <mxCell id="-QjtrjUzRDEMRZ5MF8oH-22" value="AWS IoT Analytics" style="outlineConnect=0;fontColor=#232F3E;gradientColor=#60A337;gradientDirection=north;fillColor=#277116;strokeColor=#ffffff;dashed=0;verticalLabelPosition=bottom;verticalAlign=top;align=center;html=1;fontSize=12;fontStyle=0;aspect=fixed;shape=mxgraph.aws4.resourceIcon;resIcon=mxgraph.aws4.iot_analytics;" parent="1" vertex="1">
          <mxGeometry x="532.5" y="708.5" width="78" height="78" as="geometry" />
        </mxCell>
        <mxCell id="-QjtrjUzRDEMRZ5MF8oH-23" value="AWS IoT Events" style="outlineConnect=0;fontColor=#232F3E;gradientColor=#60A337;gradientDirection=north;fillColor=#277116;strokeColor=#ffffff;dashed=0;verticalLabelPosition=bottom;verticalAlign=top;align=center;html=1;fontSize=12;fontStyle=0;aspect=fixed;shape=mxgraph.aws4.resourceIcon;resIcon=mxgraph.aws4.iot_events;" parent="1" vertex="1">
          <mxGeometry x="721.5" y="708.5" width="78" height="78" as="geometry" />
        </mxCell>
        <mxCell id="-QjtrjUzRDEMRZ5MF8oH-24" value="Amazon SNS" style="outlineConnect=0;fontColor=#232F3E;gradientColor=#F34482;gradientDirection=north;fillColor=#BC1356;strokeColor=#ffffff;dashed=0;verticalLabelPosition=bottom;verticalAlign=top;align=center;html=1;fontSize=12;fontStyle=0;aspect=fixed;shape=mxgraph.aws4.resourceIcon;resIcon=mxgraph.aws4.sns;" parent="1" vertex="1">
          <mxGeometry x="902.5" y="708.5" width="78" height="78" as="geometry" />
        </mxCell>
        <mxCell id="-QjtrjUzRDEMRZ5MF8oH-25" value="Amazon Kinesis&lt;br&gt;Video Streams&lt;br&gt;" style="outlineConnect=0;fontColor=#232F3E;gradientColor=#945DF2;gradientDirection=north;fillColor=#5A30B5;strokeColor=#ffffff;dashed=0;verticalLabelPosition=bottom;verticalAlign=top;align=center;html=1;fontSize=12;fontStyle=0;aspect=fixed;shape=mxgraph.aws4.resourceIcon;resIcon=mxgraph.aws4.kinesis_video_streams;" parent="1" vertex="1">
          <mxGeometry x="484.5" y="874.5" width="78" height="78" as="geometry" />
        </mxCell>
        <mxCell id="-QjtrjUzRDEMRZ5MF8oH-26" value="Mobile Application" style="outlineConnect=0;fontColor=#232F3E;gradientColor=#F54749;gradientDirection=north;fillColor=#C7131F;strokeColor=#ffffff;dashed=0;verticalLabelPosition=bottom;verticalAlign=top;align=center;html=1;fontSize=12;fontStyle=0;aspect=fixed;shape=mxgraph.aws4.resourceIcon;resIcon=mxgraph.aws4.mobile;" parent="1" vertex="1">
          <mxGeometry x="785.5" y="873.5" width="78" height="78" as="geometry" />
        </mxCell>
        <mxCell id="-QjtrjUzRDEMRZ5MF8oH-27" value="2" style="rounded=1;whiteSpace=wrap;html=1;fillColor=#007CBD;strokeColor=none;fontColor=#FFFFFF;fontStyle=1;fontSize=22;" parent="1" vertex="1">
          <mxGeometry x="483.5" y="164.5" width="40" height="38" as="geometry" />
        </mxCell>
        <mxCell id="-QjtrjUzRDEMRZ5MF8oH-28" value="3" style="rounded=1;whiteSpace=wrap;html=1;fillColor=#007CBD;strokeColor=none;fontColor=#FFFFFF;fontStyle=1;fontSize=22;" parent="1" vertex="1">
          <mxGeometry x="823.5" y="175.5" width="40" height="38" as="geometry" />
        </mxCell>
        <mxCell id="-QjtrjUzRDEMRZ5MF8oH-29" value="4" style="rounded=1;whiteSpace=wrap;html=1;fillColor=#007CBD;strokeColor=none;fontColor=#FFFFFF;fontStyle=1;fontSize=22;" parent="1" vertex="1">
          <mxGeometry x="633.5" y="399.5" width="40" height="38" as="geometry" />
        </mxCell>
        <mxCell id="-QjtrjUzRDEMRZ5MF8oH-30" value="5" style="rounded=1;whiteSpace=wrap;html=1;fillColor=#007CBD;strokeColor=none;fontColor=#FFFFFF;fontStyle=1;fontSize=22;" parent="1" vertex="1">
          <mxGeometry x="878.5" y="399.5" width="40" height="38" as="geometry" />
        </mxCell>
        <mxCell id="-QjtrjUzRDEMRZ5MF8oH-31" value="6" style="rounded=1;whiteSpace=wrap;html=1;fillColor=#007CBD;strokeColor=none;fontColor=#FFFFFF;fontStyle=1;fontSize=22;" parent="1" vertex="1">
          <mxGeometry x="136.5" y="608.5" width="40" height="38" as="geometry" />
        </mxCell>
        <mxCell id="-QjtrjUzRDEMRZ5MF8oH-32" value="7" style="rounded=1;whiteSpace=wrap;html=1;fillColor=#007CBD;strokeColor=none;fontColor=#FFFFFF;fontStyle=1;fontSize=22;" parent="1" vertex="1">
          <mxGeometry x="462.5" y="666.5" width="40" height="38" as="geometry" />
        </mxCell>
        <mxCell id="-QjtrjUzRDEMRZ5MF8oH-33" value="8" style="rounded=1;whiteSpace=wrap;html=1;fillColor=#007CBD;strokeColor=none;fontColor=#FFFFFF;fontStyle=1;fontSize=22;" parent="1" vertex="1">
          <mxGeometry x="832.5" y="666.5" width="40" height="38" as="geometry" />
        </mxCell>
        <mxCell id="-QjtrjUzRDEMRZ5MF8oH-34" value="9" style="rounded=1;whiteSpace=wrap;html=1;fillColor=#007CBD;strokeColor=none;fontColor=#FFFFFF;fontStyle=1;fontSize=22;" parent="1" vertex="1">
          <mxGeometry x="352.5" y="854.5" width="40" height="38" as="geometry" />
        </mxCell>
        <mxCell id="-QjtrjUzRDEMRZ5MF8oH-35" value="10" style="rounded=1;whiteSpace=wrap;html=1;fillColor=#007CBD;strokeColor=none;fontColor=#FFFFFF;fontStyle=1;fontSize=22;" parent="1" vertex="1">
          <mxGeometry x="652.5" y="854.5" width="40" height="38" as="geometry" />
        </mxCell>
        <mxCell id="-QjtrjUzRDEMRZ5MF8oH-47" value="Title text" style="text;html=1;resizable=0;points=[];autosize=1;align=left;verticalAlign=top;spacingTop=-4;fontSize=30;fontStyle=1" parent="1" vertex="1">
          <mxGeometry x="56.5" y="64.5" width="130" height="40" as="geometry" />
        </mxCell>
        <mxCell id="-QjtrjUzRDEMRZ5MF8oH-48" value="Subtitle text&lt;br style=&quot;font-size: 16px&quot;&gt;" style="text;html=1;resizable=0;points=[];autosize=1;align=left;verticalAlign=top;spacingTop=-4;fontSize=16;" parent="1" vertex="1">
          <mxGeometry x="56.5" y="114.5" width="100" height="20" as="geometry" />
        </mxCell>
        <mxCell id="-QjtrjUzRDEMRZ5MF8oH-49" value="Label" style="text;html=1;resizable=0;points=[];autosize=1;align=left;verticalAlign=top;spacingTop=-4;fontSize=16;fontStyle=1" parent="1" vertex="1">
          <mxGeometry x="84.5" y="164.5" width="50" height="20" as="geometry" />
        </mxCell>
        <mxCell id="SCVMTBWpLvtzJIhz15lM-1" value="" style="line;strokeWidth=2;html=1;fontSize=14;" parent="1" vertex="1">
          <mxGeometry x="52.5" y="139.5" width="1060" height="10" as="geometry" />
        </mxCell>
        <mxCell id="SCVMTBWpLvtzJIhz15lM-2" value="&lt;span&gt;Label&lt;/span&gt;" style="text;html=1;resizable=0;points=[];autosize=1;align=left;verticalAlign=top;spacingTop=-4;fontSize=14;fontStyle=1" parent="1" vertex="1">
          <mxGeometry x="442.5" y="216.5" width="50" height="20" as="geometry" />
        </mxCell>
        <mxCell id="SCVMTBWpLvtzJIhz15lM-3" value="" style="edgeStyle=orthogonalEdgeStyle;html=1;endArrow=open;elbow=vertical;startArrow=none;endFill=0;strokeColor=#545B64;rounded=0;fontSize=14;" parent="1" edge="1">
          <mxGeometry width="100" relative="1" as="geometry">
            <mxPoint x="354.5" y="394.5" as="sourcePoint" />
            <mxPoint x="404.5" y="394.5" as="targetPoint" />
          </mxGeometry>
        </mxCell>
        <mxCell id="SCVMTBWpLvtzJIhz15lM-5" value="" style="shape=curlyBracket;whiteSpace=wrap;html=1;rounded=1;fontSize=14;" parent="1" vertex="1">
          <mxGeometry x="415.5" y="248.5" width="20" height="290" as="geometry" />
        </mxCell>
        <mxCell id="SCVMTBWpLvtzJIhz15lM-17" value="&lt;span&gt;Label&lt;/span&gt;" style="edgeStyle=orthogonalEdgeStyle;html=1;endArrow=open;elbow=vertical;startArrow=none;endFill=0;strokeColor=#545B64;rounded=0;fontSize=14;strokeWidth=2;" parent="1" edge="1">
          <mxGeometry x="-0.037" y="20" width="100" relative="1" as="geometry">
            <mxPoint x="584.5" y="254.5" as="sourcePoint" />
            <mxPoint x="854.5" y="254.5" as="targetPoint" />
            <mxPoint as="offset" />
          </mxGeometry>
        </mxCell>
        <mxCell id="SCVMTBWpLvtzJIhz15lM-18" value="&lt;span&gt;Label&lt;/span&gt;" style="edgeStyle=orthogonalEdgeStyle;html=1;endArrow=none;elbow=vertical;startArrow=open;endFill=0;strokeColor=#545B64;rounded=0;fontSize=14;strokeWidth=2;startFill=0;" parent="1" edge="1">
          <mxGeometry x="-0.037" y="20" width="100" relative="1" as="geometry">
            <mxPoint x="582.5" y="318" as="sourcePoint" />
            <mxPoint x="852.5" y="318" as="targetPoint" />
            <mxPoint as="offset" />
          </mxGeometry>
        </mxCell>
        <mxCell id="SCVMTBWpLvtzJIhz15lM-19" value="&lt;span&gt;Label&lt;/span&gt;" style="edgeStyle=orthogonalEdgeStyle;html=1;endArrow=open;elbow=vertical;startArrow=none;endFill=0;strokeColor=#545B64;rounded=0;fontSize=14;strokeWidth=2;" parent="1" edge="1">
          <mxGeometry x="-0.037" y="20" width="100" relative="1" as="geometry">
            <mxPoint x="594.5000000000002" y="484.5" as="sourcePoint" />
            <mxPoint x="714.5" y="484.5" as="targetPoint" />
            <mxPoint as="offset" />
          </mxGeometry>
        </mxCell>
        <mxCell id="SCVMTBWpLvtzJIhz15lM-20" value="&lt;span&gt;Label&lt;/span&gt;" style="edgeStyle=orthogonalEdgeStyle;html=1;endArrow=open;elbow=vertical;startArrow=none;endFill=0;strokeColor=#545B64;rounded=0;fontSize=14;strokeWidth=2;" parent="1" edge="1">
          <mxGeometry x="-0.037" y="20" width="100" relative="1" as="geometry">
            <mxPoint x="838.5000000000002" y="487.5" as="sourcePoint" />
            <mxPoint x="924.5" y="487.5" as="targetPoint" />
            <mxPoint as="offset" />
          </mxGeometry>
        </mxCell>
        <mxCell id="SCVMTBWpLvtzJIhz15lM-21" value="Label" style="text;html=1;resizable=0;points=[];autosize=1;align=left;verticalAlign=top;spacingTop=-4;fontSize=16;fontStyle=1" parent="1" vertex="1">
          <mxGeometry x="66.5" y="576.5" width="50" height="20" as="geometry" />
        </mxCell>
        <mxCell id="SCVMTBWpLvtzJIhz15lM-22" value="&lt;span&gt;Label&lt;/span&gt;" style="text;html=1;resizable=0;points=[];autosize=1;align=left;verticalAlign=top;spacingTop=-4;fontSize=14;fontStyle=1" parent="1" vertex="1">
          <mxGeometry x="136.5" y="656.5" width="50" height="20" as="geometry" />
        </mxCell>
        <mxCell id="SCVMTBWpLvtzJIhz15lM-23" value="" style="shape=curlyBracket;whiteSpace=wrap;html=1;rounded=1;fontSize=14;" parent="1" vertex="1">
          <mxGeometry x="76.5" y="691.5" width="20" height="290" as="geometry" />
        </mxCell>
        <mxCell id="SCVMTBWpLvtzJIhz15lM-24" value="Video Events" style="edgeStyle=orthogonalEdgeStyle;html=1;endArrow=open;elbow=vertical;startArrow=none;endFill=0;strokeColor=#545B64;rounded=0;fontSize=14;strokeWidth=2;" parent="1" edge="1">
          <mxGeometry x="-0.037" y="20" width="100" relative="1" as="geometry">
            <mxPoint x="261.5" y="753.5" as="sourcePoint" />
            <mxPoint x="342.5" y="753.5" as="targetPoint" />
            <mxPoint as="offset" />
          </mxGeometry>
        </mxCell>
        <mxCell id="SCVMTBWpLvtzJIhz15lM-25" value="" style="edgeStyle=orthogonalEdgeStyle;html=1;endArrow=open;elbow=vertical;startArrow=none;endFill=0;strokeColor=#545B64;rounded=0;fontSize=14;strokeWidth=2;" parent="1" edge="1">
          <mxGeometry x="-0.037" y="20" width="100" relative="1" as="geometry">
            <mxPoint x="443" y="750" as="sourcePoint" />
            <mxPoint x="524" y="750" as="targetPoint" />
            <mxPoint as="offset" />
          </mxGeometry>
        </mxCell>
        <mxCell id="SCVMTBWpLvtzJIhz15lM-26" value="" style="edgeStyle=orthogonalEdgeStyle;html=1;endArrow=open;elbow=vertical;startArrow=none;endFill=0;strokeColor=#545B64;rounded=0;fontSize=14;strokeWidth=2;" parent="1" edge="1">
          <mxGeometry x="-0.037" y="20" width="100" relative="1" as="geometry">
            <mxPoint x="622.5" y="750" as="sourcePoint" />
            <mxPoint x="703.5" y="750" as="targetPoint" />
            <mxPoint as="offset" />
          </mxGeometry>
        </mxCell>
        <mxCell id="SCVMTBWpLvtzJIhz15lM-27" value="" style="edgeStyle=orthogonalEdgeStyle;html=1;endArrow=open;elbow=vertical;startArrow=none;endFill=0;strokeColor=#545B64;rounded=0;fontSize=14;strokeWidth=2;" parent="1" edge="1">
          <mxGeometry x="-0.037" y="20" width="100" relative="1" as="geometry">
            <mxPoint x="811.5" y="747.5" as="sourcePoint" />
            <mxPoint x="892.5" y="747.5" as="targetPoint" />
            <mxPoint as="offset" />
          </mxGeometry>
        </mxCell>
        <mxCell id="SCVMTBWpLvtzJIhz15lM-28" value="Video Stream" style="edgeStyle=orthogonalEdgeStyle;html=1;endArrow=open;elbow=vertical;startArrow=none;endFill=0;strokeColor=#545B64;rounded=0;fontSize=14;strokeWidth=2;" parent="1" edge="1">
          <mxGeometry x="0.0038" y="-11" width="100" relative="1" as="geometry">
            <mxPoint x="262" y="913" as="sourcePoint" />
            <mxPoint x="472.5" y="913.5" as="targetPoint" />
            <mxPoint as="offset" />
            <Array as="points">
              <mxPoint x="367.5" y="913.5" />
            </Array>
          </mxGeometry>
        </mxCell>
        <mxCell id="SCVMTBWpLvtzJIhz15lM-29" value="" style="edgeStyle=orthogonalEdgeStyle;html=1;endArrow=open;elbow=vertical;startArrow=none;endFill=0;strokeColor=#545B64;rounded=0;fontSize=14;strokeWidth=2;" parent="1" edge="1">
          <mxGeometry x="0.0038" y="-11" width="100" relative="1" as="geometry">
            <mxPoint x="575.0714285714287" y="913.2142857142858" as="sourcePoint" />
            <mxPoint x="762.5" y="913.5" as="targetPoint" />
            <mxPoint as="offset" />
            <Array as="points">
              <mxPoint x="680.5" y="913.5" />
            </Array>
          </mxGeometry>
        </mxCell>
        <mxCell id="SCVMTBWpLvtzJIhz15lM-30" value="Build" style="outlineConnect=0;gradientColor=none;fontColor=#545B64;strokeColor=none;fillColor=#879196;dashed=0;verticalLabelPosition=bottom;verticalAlign=top;align=center;html=1;fontSize=12;fontStyle=0;aspect=fixed;shape=mxgraph.aws4.illustration_devices;pointerEvents=1" parent="1" vertex="1">
          <mxGeometry x="962.5" y="179.5" width="52" height="38" as="geometry" />
        </mxCell>
        <mxCell id="SCVMTBWpLvtzJIhz15lM-31" value="Train" style="outlineConnect=0;gradientColor=none;fontColor=#545B64;strokeColor=none;fillColor=#879196;dashed=0;verticalLabelPosition=bottom;verticalAlign=top;align=center;html=1;fontSize=12;fontStyle=0;aspect=fixed;shape=mxgraph.aws4.illustration_devices;pointerEvents=1" parent="1" vertex="1">
          <mxGeometry x="892.5" y="267.5" width="52" height="38" as="geometry" />
        </mxCell>
        <mxCell id="SCVMTBWpLvtzJIhz15lM-32" value="Optimize" style="outlineConnect=0;gradientColor=none;fontColor=#545B64;strokeColor=none;fillColor=#879196;dashed=0;verticalLabelPosition=bottom;verticalAlign=top;align=center;html=1;fontSize=12;fontStyle=0;aspect=fixed;shape=mxgraph.aws4.illustration_devices;pointerEvents=1" parent="1" vertex="1">
          <mxGeometry x="1032.5" y="267.5" width="52" height="38" as="geometry" />
        </mxCell>
        <mxCell id="SCVMTBWpLvtzJIhz15lM-33" value="" style="edgeStyle=orthogonalEdgeStyle;html=1;endArrow=open;elbow=vertical;startArrow=none;endFill=0;strokeColor=#545B64;rounded=0;fontSize=14;" parent="1" edge="1">
          <mxGeometry width="100" relative="1" as="geometry">
            <mxPoint x="958.5" y="293.5" as="sourcePoint" />
            <mxPoint x="1018.5" y="293.5" as="targetPoint" />
          </mxGeometry>
        </mxCell>
        <mxCell id="SCVMTBWpLvtzJIhz15lM-35" value="" style="edgeStyle=orthogonalEdgeStyle;html=1;endArrow=open;elbow=vertical;startArrow=none;endFill=0;strokeColor=#545B64;rounded=0;fontSize=14;" parent="1" edge="1">
          <mxGeometry width="100" relative="1" as="geometry">
            <mxPoint x="992.5" y="236.46774193548387" as="sourcePoint" />
            <mxPoint x="992.5" y="256.4677419354839" as="targetPoint" />
          </mxGeometry>
        </mxCell>
        <mxCell id="7OVz4w7n9kzEPWy-4BBC-3" value="" style="rounded=0;whiteSpace=wrap;html=1;fillColor=#EAEDED;fontSize=22;fontColor=#FFFFFF;strokeColor=none;labelBackgroundColor=none;" parent="1" vertex="1">
          <mxGeometry x="1151" y="51" width="539" height="1220" as="geometry" />
        </mxCell>
        <mxCell id="7OVz4w7n9kzEPWy-4BBC-4" value="1" style="rounded=1;whiteSpace=wrap;html=1;fillColor=#007CBD;strokeColor=none;fontColor=#FFFFFF;fontStyle=1;fontSize=22;labelBackgroundColor=none;" parent="1" vertex="1">
          <mxGeometry x="1169" y="63" width="40" height="38" as="geometry" />
        </mxCell>
        <mxCell id="7OVz4w7n9kzEPWy-4BBC-5" value="2" style="rounded=1;whiteSpace=wrap;html=1;fillColor=#007CBD;strokeColor=none;fontColor=#FFFFFF;fontStyle=1;fontSize=22;labelBackgroundColor=none;" parent="1" vertex="1">
          <mxGeometry x="1167.5" y="185" width="40" height="38" as="geometry" />
        </mxCell>
        <mxCell id="t4ofRCNg2JGDTpt3AzD--1" value="" style="edgeStyle=orthogonalEdgeStyle;rounded=0;orthogonalLoop=1;jettySize=auto;html=1;" edge="1" parent="1" source="7OVz4w7n9kzEPWy-4BBC-6" target="7OVz4w7n9kzEPWy-4BBC-15">
          <mxGeometry relative="1" as="geometry" />
        </mxCell>
        <mxCell id="7OVz4w7n9kzEPWy-4BBC-6" value="3" style="rounded=1;whiteSpace=wrap;html=1;fillColor=#007CBD;strokeColor=none;fontColor=#FFFFFF;fontStyle=1;fontSize=22;labelBackgroundColor=none;" parent="1" vertex="1">
          <mxGeometry x="1167.5" y="305" width="40" height="38" as="geometry" />
        </mxCell>
        <mxCell id="7OVz4w7n9kzEPWy-4BBC-7" value="4" style="rounded=1;whiteSpace=wrap;html=1;fillColor=#007CBD;strokeColor=none;fontColor=#FFFFFF;fontStyle=1;fontSize=22;labelBackgroundColor=none;" parent="1" vertex="1">
          <mxGeometry x="1167.5" y="419" width="40" height="38" as="geometry" />
        </mxCell>
        <mxCell id="7OVz4w7n9kzEPWy-4BBC-8" value="5" style="rounded=1;whiteSpace=wrap;html=1;fillColor=#007CBD;strokeColor=none;fontColor=#FFFFFF;fontStyle=1;fontSize=22;labelBackgroundColor=none;" parent="1" vertex="1">
          <mxGeometry x="1169" y="536" width="40" height="38" as="geometry" />
        </mxCell>
        <mxCell id="7OVz4w7n9kzEPWy-4BBC-9" value="6" style="rounded=1;whiteSpace=wrap;html=1;fillColor=#007CBD;strokeColor=none;fontColor=#FFFFFF;fontStyle=1;fontSize=22;labelBackgroundColor=none;" parent="1" vertex="1">
          <mxGeometry x="1170" y="651" width="40" height="38" as="geometry" />
        </mxCell>
        <mxCell id="7OVz4w7n9kzEPWy-4BBC-10" value="7" style="rounded=1;whiteSpace=wrap;html=1;fillColor=#007CBD;strokeColor=none;fontColor=#FFFFFF;fontStyle=1;fontSize=22;labelBackgroundColor=none;" parent="1" vertex="1">
          <mxGeometry x="1169.5" y="767" width="40" height="38" as="geometry" />
        </mxCell>
        <mxCell id="7OVz4w7n9kzEPWy-4BBC-11" value="8" style="rounded=1;whiteSpace=wrap;html=1;fillColor=#007CBD;strokeColor=none;fontColor=#FFFFFF;fontStyle=1;fontSize=22;labelBackgroundColor=none;" parent="1" vertex="1">
          <mxGeometry x="1170" y="885" width="40" height="38" as="geometry" />
        </mxCell>
        <mxCell id="7OVz4w7n9kzEPWy-4BBC-12" value="9" style="rounded=1;whiteSpace=wrap;html=1;fillColor=#007CBD;strokeColor=none;fontColor=#FFFFFF;fontStyle=1;fontSize=22;labelBackgroundColor=none;" parent="1" vertex="1">
          <mxGeometry x="1168" y="1005" width="40" height="38" as="geometry" />
        </mxCell>
        <mxCell id="7OVz4w7n9kzEPWy-4BBC-13" value="&lt;span&gt;Lorem ipsum dolor sit amet, consectetur adipiscing elit, sed do eiusmod tempor incididunt ut labore et dolore magna aliqua. Ut enim ad minim veniam, quis nostrud exercitation ullamco laboris nisi ut aliquip ex ea commodo consequat. Duis aute irure dolor in reprehenderit in voluptate velit esse cillum dolore eu fugiat nulla pariatur. Excepteur sint occaecat cupidatat non proident, sunt in culpa qui officia deserunt mollit anim id est laborum.&lt;/span&gt;&lt;br&gt;" style="text;html=1;align=left;verticalAlign=top;spacingTop=-4;fontSize=14;labelBackgroundColor=none;whiteSpace=wrap;" parent="1" vertex="1">
          <mxGeometry x="473.5" y="31.5" width="449" height="118" as="geometry" />
        </mxCell>
        <mxCell id="7OVz4w7n9kzEPWy-4BBC-15" value="&lt;span&gt;Lorem ipsum dolor sit amet, consectetur adipiscing elit, sed do eiusmod tempor incididunt ut labore et dolore magna aliqua. Ut enim ad minim veniam, quis nostrud exercitation ullamco laboris nisi ut aliquip ex ea commodo consequat. Duis aute irure dolor in reprehenderit in voluptate velit esse cillum dolore eu fugiat nulla pariatur. Excepteur sint occaecat cupidatat non proident, sunt in culpa qui officia deserunt mollit anim id est laborum.&lt;/span&gt;&lt;br&gt;" style="text;html=1;align=left;verticalAlign=top;spacingTop=-4;fontSize=14;labelBackgroundColor=none;whiteSpace=wrap;" parent="1" vertex="1">
          <mxGeometry x="1219.5" y="303.5" width="450" height="117" as="geometry" />
        </mxCell>
        <mxCell id="7OVz4w7n9kzEPWy-4BBC-16" value="&lt;span&gt;Lorem ipsum dolor sit amet, consectetur adipiscing elit, sed do eiusmod tempor incididunt ut labore et dolore magna aliqua. Ut enim ad minim veniam, quis nostrud exercitation ullamco laboris nisi ut aliquip ex ea commodo consequat. Duis aute irure dolor in reprehenderit in voluptate velit esse cillum dolore eu fugiat nulla pariatur. Excepteur sint occaecat cupidatat non proident, sunt in culpa qui officia deserunt mollit anim id est laborum.&lt;/span&gt;&lt;br&gt;" style="text;html=1;align=left;verticalAlign=top;spacingTop=-4;fontSize=14;labelBackgroundColor=none;whiteSpace=wrap;" parent="1" vertex="1">
          <mxGeometry x="1219.5" y="419.5" width="450" height="121" as="geometry" />
        </mxCell>
        <mxCell id="7OVz4w7n9kzEPWy-4BBC-17" value="&lt;span&gt;Lorem ipsum dolor sit amet, consectetur adipiscing elit, sed do eiusmod tempor incididunt ut labore et dolore magna aliqua. Ut enim ad minim veniam, quis nostrud exercitation ullamco laboris nisi ut aliquip ex ea commodo consequat. Duis aute irure dolor in reprehenderit in voluptate velit esse cillum dolore eu fugiat nulla pariatur. Excepteur sint occaecat cupidatat non proident, sunt in culpa qui officia deserunt mollit anim id est laborum.&lt;/span&gt;&lt;br&gt;" style="text;html=1;align=left;verticalAlign=top;spacingTop=-4;fontSize=14;labelBackgroundColor=none;whiteSpace=wrap;" parent="1" vertex="1">
          <mxGeometry x="1220.5" y="536.5" width="449" height="114" as="geometry" />
        </mxCell>
        <mxCell id="7OVz4w7n9kzEPWy-4BBC-18" value="&lt;span&gt;Lorem ipsum dolor sit amet, consectetur adipiscing elit, sed do eiusmod tempor incididunt ut labore et dolore magna aliqua. Ut enim ad minim veniam, quis nostrud exercitation ullamco laboris nisi ut aliquip ex ea commodo consequat. Duis aute irure dolor in reprehenderit in voluptate velit esse cillum dolore eu fugiat nulla pariatur. Excepteur sint occaecat cupidatat non proident, sunt in culpa qui officia deserunt mollit anim id est laborum.&lt;/span&gt;&lt;br&gt;" style="text;html=1;align=left;verticalAlign=top;spacingTop=-4;fontSize=14;labelBackgroundColor=none;whiteSpace=wrap;" parent="1" vertex="1">
          <mxGeometry x="1220.5" y="652.5" width="450" height="118" as="geometry" />
        </mxCell>
        <mxCell id="7OVz4w7n9kzEPWy-4BBC-19" value="&lt;span&gt;Lorem ipsum dolor sit amet, consectetur adipiscing elit, sed do eiusmod tempor incididunt ut labore et dolore magna aliqua. Ut enim ad minim veniam, quis nostrud exercitation ullamco laboris nisi ut aliquip ex ea commodo consequat. Duis aute irure dolor in reprehenderit in voluptate velit esse cillum dolore eu fugiat nulla pariatur. Excepteur sint occaecat cupidatat non proident, sunt in culpa qui officia deserunt mollit anim id est laborum.&lt;/span&gt;&lt;br&gt;" style="text;html=1;align=left;verticalAlign=top;spacingTop=-4;fontSize=14;labelBackgroundColor=none;whiteSpace=wrap;" parent="1" vertex="1">
          <mxGeometry x="1220.5" y="767.5" width="449" height="113" as="geometry" />
        </mxCell>
        <mxCell id="7OVz4w7n9kzEPWy-4BBC-20" value="&lt;span&gt;Lorem ipsum dolor sit amet, consectetur adipiscing elit, sed do eiusmod tempor incididunt ut labore et dolore magna aliqua. Ut enim ad minim veniam, quis nostrud exercitation ullamco laboris nisi ut aliquip ex ea commodo consequat. Duis aute irure dolor in reprehenderit in voluptate velit esse cillum dolore eu fugiat nulla pariatur. Excepteur sint occaecat cupidatat non proident, sunt in culpa qui officia deserunt mollit anim id est laborum.&lt;/span&gt;&lt;br&gt;" style="text;html=1;align=left;verticalAlign=top;spacingTop=-4;fontSize=14;labelBackgroundColor=none;whiteSpace=wrap;" parent="1" vertex="1">
          <mxGeometry x="1220.5" y="886.5" width="449" height="124" as="geometry" />
        </mxCell>
        <mxCell id="7OVz4w7n9kzEPWy-4BBC-21" value="&lt;span&gt;Lorem ipsum dolor sit amet, consectetur adipiscing elit, sed do eiusmod tempor incididunt ut labore et dolore magna aliqua. Ut enim ad minim veniam, quis nostrud exercitation ullamco laboris nisi ut aliquip ex ea commodo consequat. Duis aute irure dolor in reprehenderit in voluptate velit esse cillum dolore eu fugiat nulla pariatur. Excepteur sint occaecat cupidatat non proident, sunt in culpa qui officia deserunt mollit anim id est laborum.&lt;/span&gt;&lt;br&gt;" style="text;html=1;align=left;verticalAlign=top;spacingTop=-4;fontSize=14;labelBackgroundColor=none;whiteSpace=wrap;" parent="1" vertex="1">
          <mxGeometry x="1220.5" y="1005.5" width="449" height="115" as="geometry" />
        </mxCell>
        <mxCell id="7OVz4w7n9kzEPWy-4BBC-22" value="10" style="rounded=1;whiteSpace=wrap;html=1;fillColor=#007CBD;strokeColor=none;fontColor=#FFFFFF;fontStyle=1;fontSize=22;labelBackgroundColor=none;" parent="1" vertex="1">
          <mxGeometry x="1169" y="1130.5" width="40" height="38" as="geometry" />
        </mxCell>
        <mxCell id="7OVz4w7n9kzEPWy-4BBC-23" value="&lt;span&gt;Lorem ipsum dolor sit amet, consectetur adipiscing elit, sed do eiusmod tempor incididunt ut labore et dolore magna aliqua. Ut enim ad minim veniam, quis nostrud exercitation ullamco laboris nisi ut aliquip ex ea commodo consequat. Duis aute irure dolor in reprehenderit in voluptate velit esse cillum dolore eu fugiat nulla pariatur. Excepteur sint occaecat cupidatat non proident, sunt in culpa qui officia deserunt mollit anim id est laborum.&lt;/span&gt;&lt;br&gt;" style="text;html=1;align=left;verticalAlign=top;spacingTop=-4;fontSize=14;labelBackgroundColor=none;whiteSpace=wrap;" parent="1" vertex="1">
          <mxGeometry x="1221.5" y="1131" width="449" height="115" as="geometry" />
        </mxCell>
      </root>
    </mxGraphModel>
  </diagram>
  <diagram id="DGWB0BznINM3LNl3tufz" name="VM Vs Container">
    <mxGraphModel dx="1460" dy="794" grid="1" gridSize="10" guides="1" tooltips="1" connect="1" arrows="1" fold="1" page="1" pageScale="1" pageWidth="850" pageHeight="1100" math="0" shadow="0">
      <root>
        <mxCell id="kyDqKszKugS3sy3nD4lF-0" />
        <mxCell id="kyDqKszKugS3sy3nD4lF-1" parent="kyDqKszKugS3sy3nD4lF-0" />
        <mxCell id="bHIcWcPqwZpYIcdL-W17-55" value="" style="rounded=0;whiteSpace=wrap;html=1;glass=1;fillColor=#FFFFFF;shadow=1;sketch=1;" vertex="1" parent="kyDqKszKugS3sy3nD4lF-1">
          <mxGeometry x="45" y="110" width="850" height="640" as="geometry" />
        </mxCell>
        <mxCell id="kyDqKszKugS3sy3nD4lF-6" value="" style="rounded=0;whiteSpace=wrap;html=1;glass=0;fillColor=#67AB9F;gradientColor=#ffffff;" vertex="1" parent="kyDqKszKugS3sy3nD4lF-1">
          <mxGeometry x="82" y="220" width="70" height="280" as="geometry" />
        </mxCell>
        <mxCell id="kyDqKszKugS3sy3nD4lF-7" value="" style="rounded=0;whiteSpace=wrap;html=1;glass=0;fillColor=#67AB9F;gradientColor=#ffffff;" vertex="1" parent="kyDqKszKugS3sy3nD4lF-1">
          <mxGeometry x="202" y="220" width="70" height="280" as="geometry" />
        </mxCell>
        <mxCell id="kyDqKszKugS3sy3nD4lF-8" value="" style="rounded=0;whiteSpace=wrap;html=1;glass=0;fillColor=#67AB9F;gradientColor=#ffffff;" vertex="1" parent="kyDqKszKugS3sy3nD4lF-1">
          <mxGeometry x="322" y="220" width="70" height="280" as="geometry" />
        </mxCell>
        <mxCell id="kyDqKszKugS3sy3nD4lF-9" value="&lt;b&gt;Guest OS&lt;/b&gt;" style="rounded=0;whiteSpace=wrap;html=1;glass=0;fillColor=#f0a30a;gradientDirection=north;strokeColor=#BD7000;fontColor=#ffffff;gradientColor=#ffffff;" vertex="1" parent="kyDqKszKugS3sy3nD4lF-1">
          <mxGeometry x="82" y="390" width="70" height="110" as="geometry" />
        </mxCell>
        <mxCell id="kyDqKszKugS3sy3nD4lF-11" value="" style="rounded=0;whiteSpace=wrap;html=1;glass=0;fillColor=#f0a30a;strokeColor=#BD7000;fontColor=#ffffff;" vertex="1" parent="kyDqKszKugS3sy3nD4lF-1">
          <mxGeometry x="322" y="390" width="70" height="110" as="geometry" />
        </mxCell>
        <mxCell id="kyDqKszKugS3sy3nD4lF-12" value="Bin/Libs" style="rounded=0;whiteSpace=wrap;html=1;glass=0;fillColor=#ffcc99;gradientDirection=north;strokeColor=#36393d;gradientColor=#ffffff;" vertex="1" parent="kyDqKszKugS3sy3nD4lF-1">
          <mxGeometry x="82" y="310" width="70" height="80" as="geometry" />
        </mxCell>
        <mxCell id="kyDqKszKugS3sy3nD4lF-13" value="&lt;span&gt;Bin/Libs&lt;/span&gt;" style="rounded=0;whiteSpace=wrap;html=1;glass=0;fillColor=#ffcc99;strokeColor=#36393d;gradientDirection=north;gradientColor=#ffffff;" vertex="1" parent="kyDqKszKugS3sy3nD4lF-1">
          <mxGeometry x="202" y="310" width="70" height="80" as="geometry" />
        </mxCell>
        <mxCell id="bHIcWcPqwZpYIcdL-W17-0" value="&lt;b&gt;Guest OS&lt;/b&gt;" style="rounded=0;whiteSpace=wrap;html=1;glass=0;fillColor=#f0a30a;gradientDirection=north;strokeColor=#BD7000;fontColor=#ffffff;" vertex="1" parent="kyDqKszKugS3sy3nD4lF-1">
          <mxGeometry x="82" y="220" width="70" height="90" as="geometry" />
        </mxCell>
        <mxCell id="bHIcWcPqwZpYIcdL-W17-1" value="&lt;b&gt;Guest OS&lt;/b&gt;" style="rounded=0;whiteSpace=wrap;html=1;glass=0;fillColor=#f0a30a;gradientDirection=north;strokeColor=#BD7000;fontColor=#ffffff;" vertex="1" parent="kyDqKszKugS3sy3nD4lF-1">
          <mxGeometry x="202" y="220" width="70" height="90" as="geometry" />
        </mxCell>
        <mxCell id="bHIcWcPqwZpYIcdL-W17-5" value="&lt;b&gt;Guest OS&lt;/b&gt;" style="rounded=0;whiteSpace=wrap;html=1;glass=0;fillColor=#f0a30a;gradientDirection=north;strokeColor=#BD7000;fontColor=#ffffff;" vertex="1" parent="kyDqKszKugS3sy3nD4lF-1">
          <mxGeometry x="82" y="220" width="70" height="90" as="geometry" />
        </mxCell>
        <mxCell id="bHIcWcPqwZpYIcdL-W17-6" value="&lt;b&gt;Guest OS&lt;/b&gt;" style="rounded=0;whiteSpace=wrap;html=1;glass=0;fillColor=#f0a30a;gradientDirection=north;strokeColor=#BD7000;fontColor=#ffffff;gradientColor=#ffffff;" vertex="1" parent="kyDqKszKugS3sy3nD4lF-1">
          <mxGeometry x="82" y="390" width="70" height="110" as="geometry" />
        </mxCell>
        <mxCell id="bHIcWcPqwZpYIcdL-W17-7" value="Bin/Libs" style="rounded=0;whiteSpace=wrap;html=1;glass=0;fillColor=#ffcc99;gradientDirection=north;strokeColor=#36393d;gradientColor=#ffffff;" vertex="1" parent="kyDqKszKugS3sy3nD4lF-1">
          <mxGeometry x="82" y="310" width="70" height="80" as="geometry" />
        </mxCell>
        <mxCell id="bHIcWcPqwZpYIcdL-W17-13" value="" style="group;rounded=0;glass=0;strokeColor=#001DBC;fontColor=#ffffff;fillColor=#0050ef;" vertex="1" connectable="0" parent="kyDqKszKugS3sy3nD4lF-1">
          <mxGeometry x="72" y="189" width="330" height="330" as="geometry" />
        </mxCell>
        <mxCell id="bHIcWcPqwZpYIcdL-W17-3" value="Virtual Machine" style="text;html=1;resizable=0;autosize=1;align=center;verticalAlign=middle;points=[];fillColor=none;strokeColor=none;rounded=0;glass=0;" vertex="1" parent="bHIcWcPqwZpYIcdL-W17-13">
          <mxGeometry x="115" y="11" width="100" height="20" as="geometry" />
        </mxCell>
        <mxCell id="bHIcWcPqwZpYIcdL-W17-53" value="" style="group" vertex="1" connectable="0" parent="bHIcWcPqwZpYIcdL-W17-13">
          <mxGeometry width="330" height="330" as="geometry" />
        </mxCell>
        <mxCell id="kyDqKszKugS3sy3nD4lF-18" value="" style="whiteSpace=wrap;html=1;aspect=fixed;glass=0;fillColor=#cce5ff;strokeColor=#36393d;" vertex="1" parent="bHIcWcPqwZpYIcdL-W17-53">
          <mxGeometry width="330" height="330" as="geometry" />
        </mxCell>
        <mxCell id="kyDqKszKugS3sy3nD4lF-14" value="&lt;span&gt;Bin/Libs&lt;/span&gt;" style="rounded=0;whiteSpace=wrap;html=1;glass=0;fillColor=#f8cecc;strokeColor=#b85450;gradientDirection=north;gradientColor=#ffffff;" vertex="1" parent="bHIcWcPqwZpYIcdL-W17-53">
          <mxGeometry x="250" y="140" width="70" height="80" as="geometry" />
        </mxCell>
        <mxCell id="kyDqKszKugS3sy3nD4lF-16" value="&lt;b&gt;&lt;font color=&quot;#000000&quot;&gt;Guest OS&lt;/font&gt;&lt;/b&gt;" style="rounded=0;whiteSpace=wrap;html=1;glass=0;fillColor=#f0a30a;gradientDirection=north;strokeColor=#BD7000;fontColor=#ffffff;gradientColor=#ffffff;" vertex="1" parent="bHIcWcPqwZpYIcdL-W17-53">
          <mxGeometry x="130" y="220" width="70" height="110" as="geometry" />
        </mxCell>
        <mxCell id="kyDqKszKugS3sy3nD4lF-17" value="&lt;b&gt;&lt;font color=&quot;#000000&quot;&gt;Guest OS&lt;/font&gt;&lt;/b&gt;" style="rounded=0;whiteSpace=wrap;html=1;glass=0;fillColor=#f0a30a;gradientDirection=north;strokeColor=#BD7000;fontColor=#ffffff;gradientColor=#ffffff;" vertex="1" parent="bHIcWcPqwZpYIcdL-W17-53">
          <mxGeometry x="250" y="220" width="70" height="110" as="geometry" />
        </mxCell>
        <mxCell id="bHIcWcPqwZpYIcdL-W17-8" value="&lt;b&gt;App-1&lt;/b&gt;" style="rounded=1;whiteSpace=wrap;html=1;glass=0;gradientDirection=south;strokeColor=#9673a6;gradientColor=#C3ABD0;fillColor=#3399FF;" vertex="1" parent="bHIcWcPqwZpYIcdL-W17-53">
          <mxGeometry x="10" y="50" width="70" height="90" as="geometry" />
        </mxCell>
        <mxCell id="bHIcWcPqwZpYIcdL-W17-9" value="&lt;b&gt;&lt;font color=&quot;#080808&quot;&gt;Guest OS&lt;/font&gt;&lt;/b&gt;" style="rounded=0;whiteSpace=wrap;html=1;glass=0;fillColor=#f0a30a;gradientDirection=north;strokeColor=#BD7000;fontColor=#ffffff;gradientColor=#ffffff;" vertex="1" parent="bHIcWcPqwZpYIcdL-W17-53">
          <mxGeometry x="10" y="220" width="70" height="110" as="geometry" />
        </mxCell>
        <mxCell id="bHIcWcPqwZpYIcdL-W17-10" value="Bin/Libs" style="rounded=0;whiteSpace=wrap;html=1;glass=0;fillColor=#f8cecc;gradientDirection=north;strokeColor=#b85450;gradientColor=#ffffff;" vertex="1" parent="bHIcWcPqwZpYIcdL-W17-53">
          <mxGeometry x="10" y="140" width="70" height="80" as="geometry" />
        </mxCell>
        <mxCell id="bHIcWcPqwZpYIcdL-W17-11" value="&lt;span&gt;Bin/Libs&lt;/span&gt;" style="rounded=0;whiteSpace=wrap;html=1;glass=0;fillColor=#f8cecc;strokeColor=#b85450;gradientDirection=north;gradientColor=#ffffff;" vertex="1" parent="bHIcWcPqwZpYIcdL-W17-53">
          <mxGeometry x="130" y="140" width="70" height="80" as="geometry" />
        </mxCell>
        <mxCell id="bHIcWcPqwZpYIcdL-W17-48" value="&lt;b&gt;App-1&lt;/b&gt;" style="rounded=1;whiteSpace=wrap;html=1;glass=0;gradientDirection=south;strokeColor=#9673a6;gradientColor=#C3ABD0;fillColor=#3399FF;" vertex="1" parent="bHIcWcPqwZpYIcdL-W17-53">
          <mxGeometry x="130" y="50" width="70" height="90" as="geometry" />
        </mxCell>
        <mxCell id="bHIcWcPqwZpYIcdL-W17-49" value="&lt;b&gt;App-1&lt;/b&gt;" style="rounded=1;whiteSpace=wrap;html=1;glass=0;gradientDirection=south;strokeColor=#9673a6;gradientColor=#C3ABD0;fillColor=#3399FF;" vertex="1" parent="bHIcWcPqwZpYIcdL-W17-53">
          <mxGeometry x="250" y="50" width="70" height="90" as="geometry" />
        </mxCell>
        <mxCell id="bHIcWcPqwZpYIcdL-W17-56" value="&lt;b&gt;&lt;u&gt;Virtual Machine&amp;nbsp;&lt;/u&gt;&lt;/b&gt;" style="text;html=1;resizable=0;autosize=1;align=center;verticalAlign=middle;points=[];fillColor=none;strokeColor=none;rounded=0;glass=0;" vertex="1" parent="bHIcWcPqwZpYIcdL-W17-53">
          <mxGeometry x="95" y="11" width="110" height="20" as="geometry" />
        </mxCell>
        <mxCell id="bHIcWcPqwZpYIcdL-W17-18" value="" style="group" vertex="1" connectable="0" parent="kyDqKszKugS3sy3nD4lF-1">
          <mxGeometry x="72" y="520" width="330" height="160" as="geometry" />
        </mxCell>
        <mxCell id="kyDqKszKugS3sy3nD4lF-4" value="&lt;b&gt;&lt;font color=&quot;#000000&quot;&gt;Hyper Visor&lt;/font&gt;&lt;/b&gt;" style="rounded=1;whiteSpace=wrap;html=1;fillColor=#76608a;gradientDirection=north;strokeColor=#432D57;fontColor=#ffffff;gradientColor=#ffffff;" vertex="1" parent="bHIcWcPqwZpYIcdL-W17-18">
          <mxGeometry width="330" height="40" as="geometry" />
        </mxCell>
        <mxCell id="bHIcWcPqwZpYIcdL-W17-14" value="" style="group" vertex="1" connectable="0" parent="bHIcWcPqwZpYIcdL-W17-18">
          <mxGeometry y="40" width="330" height="120" as="geometry" />
        </mxCell>
        <mxCell id="kyDqKszKugS3sy3nD4lF-3" value="&lt;b&gt;&lt;font color=&quot;#000000&quot;&gt;Host OS&lt;/font&gt;&lt;/b&gt;" style="rounded=1;whiteSpace=wrap;html=1;fillColor=#f0a30a;gradientDirection=north;glass=0;strokeColor=#BD7000;fontColor=#ffffff;gradientColor=#ffffff;" vertex="1" parent="bHIcWcPqwZpYIcdL-W17-14">
          <mxGeometry width="330" height="60" as="geometry" />
        </mxCell>
        <mxCell id="kyDqKszKugS3sy3nD4lF-15" value="&lt;b&gt;Server Infrastructure&amp;nbsp;&lt;/b&gt;" style="rounded=1;whiteSpace=wrap;html=1;fillColor=#cdeb8b;gradientDirection=south;glass=0;strokeColor=#36393d;gradientColor=#B3B3B3;" vertex="1" parent="bHIcWcPqwZpYIcdL-W17-14">
          <mxGeometry y="60" width="330" height="60" as="geometry" />
        </mxCell>
        <mxCell id="bHIcWcPqwZpYIcdL-W17-23" value="Virtual Machine Vs Containers&amp;nbsp;" style="rounded=1;whiteSpace=wrap;html=1;glass=0;gradientColor=#E1D5E7;fillColor=#FFFFFF;" vertex="1" parent="kyDqKszKugS3sy3nD4lF-1">
          <mxGeometry x="95" y="120" width="750" height="60" as="geometry" />
        </mxCell>
        <mxCell id="bHIcWcPqwZpYIcdL-W17-54" value="" style="group" vertex="1" connectable="0" parent="kyDqKszKugS3sy3nD4lF-1">
          <mxGeometry x="515" y="420" width="360" height="260" as="geometry" />
        </mxCell>
        <mxCell id="bHIcWcPqwZpYIcdL-W17-15" value="" style="group" vertex="1" connectable="0" parent="bHIcWcPqwZpYIcdL-W17-54">
          <mxGeometry y="140" width="360" height="120" as="geometry" />
        </mxCell>
        <mxCell id="bHIcWcPqwZpYIcdL-W17-16" value="&lt;b&gt;&lt;font color=&quot;#000000&quot;&gt;Host OS&lt;/font&gt;&lt;/b&gt;" style="rounded=1;whiteSpace=wrap;html=1;fillColor=#f0a30a;gradientDirection=north;glass=0;strokeColor=#BD7000;fontColor=#ffffff;gradientColor=#ffffff;" vertex="1" parent="bHIcWcPqwZpYIcdL-W17-15">
          <mxGeometry width="360" height="60" as="geometry" />
        </mxCell>
        <mxCell id="bHIcWcPqwZpYIcdL-W17-17" value="&lt;b&gt;Server Infrastructure&amp;nbsp;&lt;/b&gt;" style="rounded=1;whiteSpace=wrap;html=1;fillColor=#cdeb8b;gradientDirection=south;glass=0;strokeColor=#36393d;gradientColor=#B3B3B3;" vertex="1" parent="bHIcWcPqwZpYIcdL-W17-15">
          <mxGeometry y="60" width="360" height="60" as="geometry" />
        </mxCell>
        <mxCell id="bHIcWcPqwZpYIcdL-W17-36" value="Bin/Libs" style="rounded=1;whiteSpace=wrap;html=1;glass=0;fillColor=#f8cecc;gradientDirection=north;strokeColor=#b85450;gradientColor=#ffffff;" vertex="1" parent="bHIcWcPqwZpYIcdL-W17-54">
          <mxGeometry y="90" width="130" height="50" as="geometry" />
        </mxCell>
        <mxCell id="bHIcWcPqwZpYIcdL-W17-37" value="Bin/Libs" style="rounded=1;whiteSpace=wrap;html=1;glass=0;fillColor=#f8cecc;gradientDirection=north;strokeColor=#b85450;gradientColor=#ffffff;" vertex="1" parent="bHIcWcPqwZpYIcdL-W17-54">
          <mxGeometry x="140" y="90" width="140" height="50" as="geometry" />
        </mxCell>
        <mxCell id="bHIcWcPqwZpYIcdL-W17-41" value="&lt;b&gt;&lt;sub&gt;App1&lt;/sub&gt;&lt;/b&gt;" style="rounded=1;whiteSpace=wrap;html=1;glass=0;gradientDirection=south;strokeColor=#9673a6;gradientColor=#E1D5E7;align=left;fillColor=#3399FF;" vertex="1" parent="bHIcWcPqwZpYIcdL-W17-54">
          <mxGeometry width="30" height="90" as="geometry" />
        </mxCell>
        <mxCell id="bHIcWcPqwZpYIcdL-W17-42" value="&lt;b&gt;&lt;sub&gt;App 1&lt;/sub&gt;&lt;/b&gt;" style="rounded=1;whiteSpace=wrap;html=1;glass=0;gradientDirection=south;strokeColor=#9673a6;gradientColor=#E1D5E7;align=left;fillColor=#3399FF;" vertex="1" parent="bHIcWcPqwZpYIcdL-W17-54">
          <mxGeometry x="142" width="30" height="90" as="geometry" />
        </mxCell>
        <mxCell id="bHIcWcPqwZpYIcdL-W17-43" value="&lt;b&gt;&lt;sub&gt;App2&lt;/sub&gt;&lt;/b&gt;" style="rounded=1;whiteSpace=wrap;html=1;glass=0;gradientDirection=south;strokeColor=#9673a6;gradientColor=#E1D5E7;align=left;fillColor=#3399FF;" vertex="1" parent="bHIcWcPqwZpYIcdL-W17-54">
          <mxGeometry x="46" width="30" height="90" as="geometry" />
        </mxCell>
        <mxCell id="bHIcWcPqwZpYIcdL-W17-44" value="&lt;b&gt;&lt;sub&gt;App 3&lt;/sub&gt;&lt;/b&gt;" style="rounded=1;whiteSpace=wrap;html=1;glass=0;gradientDirection=south;strokeColor=#9673a6;gradientColor=#E1D5E7;align=left;fillColor=#3399FF;" vertex="1" parent="bHIcWcPqwZpYIcdL-W17-54">
          <mxGeometry x="90" width="30" height="90" as="geometry" />
        </mxCell>
        <mxCell id="bHIcWcPqwZpYIcdL-W17-45" value="&lt;b&gt;&lt;sub&gt;App 4&lt;/sub&gt;&lt;/b&gt;" style="rounded=1;whiteSpace=wrap;html=1;glass=0;gradientDirection=south;strokeColor=#9673a6;gradientColor=#E1D5E7;align=left;fillColor=#3399FF;" vertex="1" parent="bHIcWcPqwZpYIcdL-W17-54">
          <mxGeometry x="250" width="30" height="90" as="geometry" />
        </mxCell>
        <mxCell id="bHIcWcPqwZpYIcdL-W17-46" value="&lt;b&gt;&lt;sub&gt;App 2&lt;/sub&gt;&lt;/b&gt;" style="rounded=1;whiteSpace=wrap;html=1;glass=0;gradientDirection=south;strokeColor=#9673a6;gradientColor=#E1D5E7;align=left;fillColor=#3399FF;" vertex="1" parent="bHIcWcPqwZpYIcdL-W17-54">
          <mxGeometry x="178" width="30" height="90" as="geometry" />
        </mxCell>
        <mxCell id="bHIcWcPqwZpYIcdL-W17-47" value="&lt;b&gt;&lt;sub&gt;App 3&lt;/sub&gt;&lt;/b&gt;" style="rounded=1;whiteSpace=wrap;html=1;glass=0;gradientDirection=south;strokeColor=#9673a6;gradientColor=#E1D5E7;align=left;fillColor=#3399FF;" vertex="1" parent="bHIcWcPqwZpYIcdL-W17-54">
          <mxGeometry x="215" width="30" height="90" as="geometry" />
        </mxCell>
        <mxCell id="6JbyQQnrYKDJZ0UKh6eg-0" value="&lt;b&gt;&lt;sub&gt;App1&lt;/sub&gt;&lt;/b&gt;" style="rounded=1;whiteSpace=wrap;html=1;glass=0;gradientDirection=south;strokeColor=#9673a6;gradientColor=#E1D5E7;align=left;fillColor=#3399FF;" vertex="1" parent="bHIcWcPqwZpYIcdL-W17-54">
          <mxGeometry width="30" height="90" as="geometry" />
        </mxCell>
        <mxCell id="6JbyQQnrYKDJZ0UKh6eg-1" value="&lt;b&gt;&lt;sub&gt;App2&lt;/sub&gt;&lt;/b&gt;" style="rounded=1;whiteSpace=wrap;html=1;glass=0;gradientDirection=south;strokeColor=#9673a6;gradientColor=#E1D5E7;align=left;fillColor=#3399FF;" vertex="1" parent="bHIcWcPqwZpYIcdL-W17-54">
          <mxGeometry x="46" width="30" height="90" as="geometry" />
        </mxCell>
        <mxCell id="dMZ3dkn6GBFQEtiERYAv-0" value="" style="group" vertex="1" connectable="0" parent="bHIcWcPqwZpYIcdL-W17-54">
          <mxGeometry x="290" width="70" height="140" as="geometry" />
        </mxCell>
        <mxCell id="bHIcWcPqwZpYIcdL-W17-38" value="" style="rounded=1;whiteSpace=wrap;html=1;glass=0;fillColor=#60a917;gradientDirection=south;strokeColor=#2D7600;fontColor=#ffffff;gradientColor=#99CCFF;" vertex="1" parent="dMZ3dkn6GBFQEtiERYAv-0">
          <mxGeometry width="70" height="140" as="geometry" />
        </mxCell>
        <mxCell id="BT9AcweuOjdm2NpgEXRj-3" value="" style="aspect=fixed;html=1;points=[];align=center;image;fontSize=12;image=img/lib/mscae/Docker.svg;rounded=1;glass=0;fillColor=#FFFFFF;gradientColor=none;" vertex="1" parent="dMZ3dkn6GBFQEtiERYAv-0">
          <mxGeometry x="10" y="54" width="50" height="41" as="geometry" />
        </mxCell>
        <mxCell id="2RaWeisrTVGtAkEOiD9W-0" value="" style="rounded=0;whiteSpace=wrap;html=1;fillColor=#EAEDED;fontSize=22;fontColor=#FFFFFF;strokeColor=none;labelBackgroundColor=none;" vertex="1" parent="kyDqKszKugS3sy3nD4lF-1">
          <mxGeometry x="945" y="120" width="445" height="250" as="geometry" />
        </mxCell>
        <mxCell id="7nLyYLvclr_Cwdo7xorj-0" value="1" style="rounded=1;whiteSpace=wrap;html=1;fillColor=#007CBD;strokeColor=none;fontColor=#FFFFFF;fontStyle=1;fontSize=22;labelBackgroundColor=none;" vertex="1" parent="kyDqKszKugS3sy3nD4lF-1">
          <mxGeometry x="965" y="160" width="40" height="38" as="geometry" />
        </mxCell>
        <mxCell id="bnwkZBaLwuNeR5rry-iJ-0" value="2" style="rounded=1;whiteSpace=wrap;html=1;fillColor=#007CBD;strokeColor=none;fontColor=#FFFFFF;fontStyle=1;fontSize=22;labelBackgroundColor=none;" vertex="1" parent="kyDqKszKugS3sy3nD4lF-1">
          <mxGeometry x="965" y="246" width="40" height="38" as="geometry" />
        </mxCell>
        <mxCell id="CElo8uF_VUIQxqXV9QFd-0" value="&lt;span&gt;Virtual Machines are running on Hypervisor which enables virtualization of OS and manages sharing of physical resources to VMs. Each VM is having its own guest OS.&lt;/span&gt;" style="text;html=1;align=left;verticalAlign=top;spacingTop=-4;fontSize=14;labelBackgroundColor=none;whiteSpace=wrap;" vertex="1" parent="kyDqKszKugS3sy3nD4lF-1">
          <mxGeometry x="1025" y="150" width="365" height="80" as="geometry" />
        </mxCell>
        <mxCell id="CElo8uF_VUIQxqXV9QFd-1" value="&lt;span&gt;Containers are running directly on host OS.&amp;nbsp; and shares host OS between containers. these are highly portable and isolated.&lt;/span&gt;" style="text;html=1;align=left;verticalAlign=top;spacingTop=-4;fontSize=14;labelBackgroundColor=none;whiteSpace=wrap;" vertex="1" parent="kyDqKszKugS3sy3nD4lF-1">
          <mxGeometry x="1025" y="246" width="360" height="85" as="geometry" />
        </mxCell>
        <mxCell id="CElo8uF_VUIQxqXV9QFd-2" value="2" style="rounded=1;whiteSpace=wrap;html=1;fillColor=#007CBD;strokeColor=none;fontColor=#FFFFFF;fontStyle=1;fontSize=22;labelBackgroundColor=none;" vertex="1" parent="kyDqKszKugS3sy3nD4lF-1">
          <mxGeometry x="695" y="690" width="40" height="38" as="geometry" />
        </mxCell>
        <mxCell id="CElo8uF_VUIQxqXV9QFd-3" value="1" style="rounded=1;whiteSpace=wrap;html=1;fillColor=#007CBD;strokeColor=none;fontColor=#FFFFFF;fontStyle=1;fontSize=22;labelBackgroundColor=none;" vertex="1" parent="kyDqKszKugS3sy3nD4lF-1">
          <mxGeometry x="202" y="690" width="40" height="38" as="geometry" />
        </mxCell>
      </root>
    </mxGraphModel>
  </diagram>
  <diagram id="_RcHPSoCK-UyDk47PvzI" name="Docker-Image Flow">
    <mxGraphModel dx="1551" dy="828" grid="1" gridSize="10" guides="1" tooltips="1" connect="1" arrows="1" fold="1" page="1" pageScale="1" pageWidth="850" pageHeight="1100" math="0" shadow="0">
      <root>
        <mxCell id="ZIVqKfLvt1eOMZWE84N--0" />
        <mxCell id="ZIVqKfLvt1eOMZWE84N--1" parent="ZIVqKfLvt1eOMZWE84N--0" />
        <mxCell id="UGMUUq8by2aVznE4F_mM-63" value="" style="rounded=1;whiteSpace=wrap;html=1;shadow=0;glass=1;sketch=0;strokeColor=#660066;fillColor=#FFFFFF;gradientColor=#B3B3B3;opacity=90;gradientDirection=north;" vertex="1" parent="ZIVqKfLvt1eOMZWE84N--1">
          <mxGeometry x="10" y="40" width="1060" height="650" as="geometry" />
        </mxCell>
        <mxCell id="ikQmyHIwPlXDHC7vOiAN-12" value="" style="edgeStyle=orthogonalEdgeStyle;rounded=0;orthogonalLoop=1;jettySize=auto;html=1;" edge="1" parent="ZIVqKfLvt1eOMZWE84N--1" target="kJPU1iOQph_Dpkr_AFzB-2">
          <mxGeometry relative="1" as="geometry">
            <mxPoint x="373" y="425" as="sourcePoint" />
            <mxPoint x="140" y="290" as="targetPoint" />
            <Array as="points">
              <mxPoint x="373" y="425" />
              <mxPoint x="373" y="425" />
            </Array>
          </mxGeometry>
        </mxCell>
        <mxCell id="UGMUUq8by2aVznE4F_mM-22" value="Build docker Image" style="edgeLabel;html=1;align=center;verticalAlign=middle;resizable=0;points=[];" vertex="1" connectable="0" parent="ikQmyHIwPlXDHC7vOiAN-12">
          <mxGeometry x="-0.2308" y="2" relative="1" as="geometry">
            <mxPoint as="offset" />
          </mxGeometry>
        </mxCell>
        <mxCell id="ikQmyHIwPlXDHC7vOiAN-7" value="&lt;b&gt;Dockerfile&amp;nbsp;&lt;/b&gt;" style="shape=document;whiteSpace=wrap;html=1;boundedLbl=1;shadow=1;fontFamily=Helvetica;fontSize=12;fontColor=#000000;align=center;strokeColor=#000000;fillColor=#FFFFFF;sketch=1;" vertex="1" parent="ZIVqKfLvt1eOMZWE84N--1">
          <mxGeometry x="49" y="410" width="121" height="80" as="geometry" />
        </mxCell>
        <mxCell id="UGMUUq8by2aVznE4F_mM-15" value="" style="group" vertex="1" connectable="0" parent="ZIVqKfLvt1eOMZWE84N--1">
          <mxGeometry x="310" y="90" width="110" height="130" as="geometry" />
        </mxCell>
        <mxCell id="kJPU1iOQph_Dpkr_AFzB-2" value="" style="aspect=fixed;perimeter=ellipsePerimeter;html=1;align=center;shadow=0;dashed=0;spacingTop=3;image;image=img/lib/active_directory/database_cube.svg;rounded=0;glass=1;sketch=1;fillColor=#FFFFFF;gradientColor=none;" vertex="1" parent="UGMUUq8by2aVznE4F_mM-15">
          <mxGeometry width="109.2" height="121.33333333333334" as="geometry" />
        </mxCell>
        <mxCell id="UGMUUq8by2aVznE4F_mM-14" value="Docker Image" style="text;html=1;resizable=0;autosize=1;align=center;verticalAlign=middle;points=[];fillColor=none;strokeColor=none;rounded=0;shadow=0;glass=1;sketch=0;" vertex="1" parent="UGMUUq8by2aVznE4F_mM-15">
          <mxGeometry x="15.714285714285715" y="112.66666666666667" width="90" height="20" as="geometry" />
        </mxCell>
        <mxCell id="UGMUUq8by2aVznE4F_mM-16" value="" style="group" vertex="1" connectable="0" parent="ZIVqKfLvt1eOMZWE84N--1">
          <mxGeometry x="280" y="425" width="260" height="220" as="geometry" />
        </mxCell>
        <mxCell id="PZKL4xhuqcC41InsU4tB-11" value="" style="group" vertex="1" connectable="0" parent="UGMUUq8by2aVznE4F_mM-16">
          <mxGeometry y="100" width="260" height="120" as="geometry" />
        </mxCell>
        <mxCell id="PZKL4xhuqcC41InsU4tB-12" value="&lt;b&gt;&lt;font color=&quot;#000000&quot;&gt;Host OS&lt;/font&gt;&lt;/b&gt;" style="rounded=1;whiteSpace=wrap;html=1;fillColor=#f0a30a;gradientDirection=north;glass=0;strokeColor=#BD7000;fontColor=#ffffff;gradientColor=#ffffff;" vertex="1" parent="PZKL4xhuqcC41InsU4tB-11">
          <mxGeometry width="260" height="60" as="geometry" />
        </mxCell>
        <mxCell id="PZKL4xhuqcC41InsU4tB-13" value="&lt;b&gt;Server Infrastructure&amp;nbsp;&lt;/b&gt;" style="rounded=1;whiteSpace=wrap;html=1;fillColor=#cdeb8b;gradientDirection=south;glass=0;strokeColor=#36393d;gradientColor=#B3B3B3;" vertex="1" parent="PZKL4xhuqcC41InsU4tB-11">
          <mxGeometry y="60" width="260" height="60" as="geometry" />
        </mxCell>
        <mxCell id="UGMUUq8by2aVznE4F_mM-11" value="" style="group" vertex="1" connectable="0" parent="UGMUUq8by2aVznE4F_mM-16">
          <mxGeometry x="10" width="100" height="139" as="geometry" />
        </mxCell>
        <mxCell id="UGMUUq8by2aVznE4F_mM-12" value="Docker Engine" style="rounded=1;whiteSpace=wrap;html=1;glass=0;fillColor=#60a917;gradientDirection=south;strokeColor=#2D7600;fontColor=#ffffff;gradientColor=#99CCFF;" vertex="1" parent="UGMUUq8by2aVznE4F_mM-11">
          <mxGeometry width="100" height="100" as="geometry" />
        </mxCell>
        <mxCell id="UGMUUq8by2aVznE4F_mM-13" value="" style="aspect=fixed;html=1;points=[];align=center;image;fontSize=12;image=img/lib/mscae/Docker.svg;rounded=1;glass=0;fillColor=#FFFFFF;gradientColor=none;" vertex="1" parent="UGMUUq8by2aVznE4F_mM-11">
          <mxGeometry x="36.96" y="70.71" width="33.04" height="27.1" as="geometry" />
        </mxCell>
        <mxCell id="UGMUUq8by2aVznE4F_mM-39" style="edgeStyle=orthogonalEdgeStyle;rounded=0;orthogonalLoop=1;jettySize=auto;html=1;entryX=0;entryY=0.5;entryDx=0;entryDy=0;entryPerimeter=0;" edge="1" parent="ZIVqKfLvt1eOMZWE84N--1" source="kJPU1iOQph_Dpkr_AFzB-2" target="UGMUUq8by2aVznE4F_mM-23">
          <mxGeometry relative="1" as="geometry">
            <mxPoint x="950" y="160" as="targetPoint" />
          </mxGeometry>
        </mxCell>
        <mxCell id="UGMUUq8by2aVznE4F_mM-40" value="push" style="edgeLabel;html=1;align=center;verticalAlign=middle;resizable=0;points=[];" vertex="1" connectable="0" parent="UGMUUq8by2aVznE4F_mM-39">
          <mxGeometry x="0.0467" y="2" relative="1" as="geometry">
            <mxPoint x="-1" as="offset" />
          </mxGeometry>
        </mxCell>
        <mxCell id="UGMUUq8by2aVznE4F_mM-59" value="5" style="group" vertex="1" connectable="0" parent="ZIVqKfLvt1eOMZWE84N--1">
          <mxGeometry x="590" y="40" width="1070" height="1229" as="geometry" />
        </mxCell>
        <mxCell id="KqEfgamp2stA4gsS0LK4-0" value="" style="rounded=0;whiteSpace=wrap;html=1;fillColor=#EAEDED;fontSize=22;fontColor=#FFFFFF;strokeColor=none;labelBackgroundColor=none;" vertex="1" parent="UGMUUq8by2aVznE4F_mM-59">
          <mxGeometry x="510" y="9" width="560" height="781" as="geometry" />
        </mxCell>
        <mxCell id="ikQmyHIwPlXDHC7vOiAN-0" value="" style="group" vertex="1" connectable="0" parent="UGMUUq8by2aVznE4F_mM-59">
          <mxGeometry y="510" width="430" height="120" as="geometry" />
        </mxCell>
        <mxCell id="ikQmyHIwPlXDHC7vOiAN-1" value="&lt;b&gt;&lt;font color=&quot;#000000&quot;&gt;Host OS&lt;/font&gt;&lt;/b&gt;" style="rounded=1;whiteSpace=wrap;html=1;fillColor=#f0a30a;gradientDirection=north;glass=0;strokeColor=#BD7000;fontColor=#ffffff;gradientColor=#ffffff;" vertex="1" parent="ikQmyHIwPlXDHC7vOiAN-0">
          <mxGeometry width="430" height="60" as="geometry" />
        </mxCell>
        <mxCell id="ikQmyHIwPlXDHC7vOiAN-2" value="&lt;b&gt;Server Infrastructure&amp;nbsp;&lt;/b&gt;" style="rounded=1;whiteSpace=wrap;html=1;fillColor=#cdeb8b;gradientDirection=south;glass=0;strokeColor=#36393d;gradientColor=#B3B3B3;" vertex="1" parent="ikQmyHIwPlXDHC7vOiAN-0">
          <mxGeometry y="60" width="430" height="60" as="geometry" />
        </mxCell>
        <mxCell id="PZKL4xhuqcC41InsU4tB-8" value="" style="group;verticalAlign=middle;horizontal=1;textDirection=ltr;" vertex="1" connectable="0" parent="UGMUUq8by2aVznE4F_mM-59">
          <mxGeometry x="10" y="420" width="920" height="369" as="geometry" />
        </mxCell>
        <mxCell id="PZKL4xhuqcC41InsU4tB-1" value="&lt;b&gt;&lt;sub&gt;Container-1&lt;/sub&gt;&lt;/b&gt;" style="rounded=1;whiteSpace=wrap;html=1;glass=0;gradientDirection=south;strokeColor=#9673a6;gradientColor=#E1D5E7;align=center;fillColor=#3399FF;flipV=0;verticalAlign=middle;horizontal=0;textDirection=rtl;" vertex="1" parent="PZKL4xhuqcC41InsU4tB-8">
          <mxGeometry width="30" height="90" as="geometry" />
        </mxCell>
        <mxCell id="UGMUUq8by2aVznE4F_mM-10" value="&lt;b&gt;&lt;sub&gt;Container-6&lt;/sub&gt;&lt;/b&gt;" style="rounded=1;whiteSpace=wrap;html=1;glass=0;gradientDirection=south;strokeColor=#9673a6;gradientColor=#E1D5E7;align=center;fillColor=#3399FF;flipV=0;verticalAlign=middle;horizontal=0;" vertex="1" parent="PZKL4xhuqcC41InsU4tB-8">
          <mxGeometry x="210" width="30" height="90" as="geometry" />
        </mxCell>
        <mxCell id="UGMUUq8by2aVznE4F_mM-9" value="&lt;b&gt;&lt;sub&gt;Container-5&lt;/sub&gt;&lt;/b&gt;" style="rounded=1;whiteSpace=wrap;html=1;glass=0;gradientDirection=south;strokeColor=#9673a6;gradientColor=#E1D5E7;align=center;fillColor=#3399FF;flipV=0;verticalAlign=middle;horizontal=0;" vertex="1" parent="PZKL4xhuqcC41InsU4tB-8">
          <mxGeometry x="170" width="30" height="90" as="geometry" />
        </mxCell>
        <mxCell id="UGMUUq8by2aVznE4F_mM-8" value="&lt;b&gt;&lt;sub&gt;Container-4&lt;/sub&gt;&lt;/b&gt;" style="rounded=1;whiteSpace=wrap;html=1;glass=0;gradientDirection=south;strokeColor=#9673a6;gradientColor=#E1D5E7;align=center;fillColor=#3399FF;flipV=0;verticalAlign=middle;horizontal=0;" vertex="1" parent="PZKL4xhuqcC41InsU4tB-8">
          <mxGeometry x="130" width="30" height="90" as="geometry" />
        </mxCell>
        <mxCell id="UGMUUq8by2aVznE4F_mM-7" value="&lt;b&gt;&lt;sub&gt;Container-3&lt;/sub&gt;&lt;/b&gt;" style="rounded=1;whiteSpace=wrap;html=1;glass=0;gradientDirection=south;strokeColor=#9673a6;gradientColor=#E1D5E7;align=center;fillColor=#3399FF;flipV=0;verticalAlign=middle;horizontal=0;" vertex="1" parent="PZKL4xhuqcC41InsU4tB-8">
          <mxGeometry x="90" width="30" height="90" as="geometry" />
        </mxCell>
        <mxCell id="UGMUUq8by2aVznE4F_mM-6" value="&lt;b&gt;&lt;sub&gt;Container-2&lt;/sub&gt;&lt;/b&gt;" style="rounded=1;whiteSpace=wrap;html=1;glass=0;gradientDirection=south;strokeColor=#9673a6;gradientColor=#E1D5E7;align=center;fillColor=#3399FF;flipV=0;verticalAlign=middle;horizontal=0;" vertex="1" parent="PZKL4xhuqcC41InsU4tB-8">
          <mxGeometry x="40" width="30" height="90" as="geometry" />
        </mxCell>
        <mxCell id="UGMUUq8by2aVznE4F_mM-3" value="" style="group" vertex="1" connectable="0" parent="UGMUUq8by2aVznE4F_mM-59">
          <mxGeometry x="260" y="410" width="100" height="100" as="geometry" />
        </mxCell>
        <mxCell id="UGMUUq8by2aVznE4F_mM-4" value="Docker Engine" style="rounded=1;whiteSpace=wrap;html=1;glass=0;fillColor=#60a917;gradientDirection=south;strokeColor=#2D7600;fontColor=#ffffff;gradientColor=#99CCFF;" vertex="1" parent="UGMUUq8by2aVznE4F_mM-3">
          <mxGeometry width="100" height="100" as="geometry" />
        </mxCell>
        <mxCell id="UGMUUq8by2aVznE4F_mM-5" value="" style="aspect=fixed;html=1;points=[];align=center;image;fontSize=12;image=img/lib/mscae/Docker.svg;rounded=1;glass=0;fillColor=#FFFFFF;gradientColor=none;" vertex="1" parent="UGMUUq8by2aVznE4F_mM-3">
          <mxGeometry x="36.96" y="70.71" width="33.04" height="27.1" as="geometry" />
        </mxCell>
        <mxCell id="UGMUUq8by2aVznE4F_mM-54" value="" style="group" vertex="1" connectable="0" parent="UGMUUq8by2aVznE4F_mM-59">
          <mxGeometry x="162" width="150" height="190.00333333333333" as="geometry" />
        </mxCell>
        <mxCell id="UGMUUq8by2aVznE4F_mM-29" value="Docker container&lt;br&gt;&amp;nbsp;Image registry" style="text;html=1;resizable=0;autosize=1;align=center;verticalAlign=middle;points=[];fillColor=none;strokeColor=none;rounded=0;shadow=0;glass=1;sketch=0;" vertex="1" parent="UGMUUq8by2aVznE4F_mM-54">
          <mxGeometry x="19.002857142857124" y="160.00333333333333" width="110" height="30" as="geometry" />
        </mxCell>
        <mxCell id="UGMUUq8by2aVznE4F_mM-23" value="" style="shape=cylinder3;whiteSpace=wrap;html=1;boundedLbl=1;backgroundOutline=1;size=15;rounded=0;shadow=0;glass=1;sketch=0;strokeColor=#006EAF;fontColor=#ffffff;fillColor=none;" vertex="1" parent="UGMUUq8by2aVznE4F_mM-54">
          <mxGeometry width="150" height="190" as="geometry" />
        </mxCell>
        <mxCell id="UGMUUq8by2aVznE4F_mM-27" value="" style="group" vertex="1" connectable="0" parent="UGMUUq8by2aVznE4F_mM-54">
          <mxGeometry x="92.66000000000008" y="100.74" width="50" height="50" as="geometry" />
        </mxCell>
        <mxCell id="UGMUUq8by2aVznE4F_mM-28" value="" style="aspect=fixed;perimeter=ellipsePerimeter;html=1;align=center;shadow=0;dashed=0;spacingTop=3;image;image=img/lib/active_directory/database_cube.svg;rounded=0;glass=1;sketch=1;fillColor=#FFFFFF;gradientColor=none;" vertex="1" parent="UGMUUq8by2aVznE4F_mM-27">
          <mxGeometry width="37.333333333333336" height="41.48148148148149" as="geometry" />
        </mxCell>
        <mxCell id="UGMUUq8by2aVznE4F_mM-44" value="" style="aspect=fixed;perimeter=ellipsePerimeter;html=1;align=center;shadow=0;dashed=0;spacingTop=3;image;image=img/lib/active_directory/database_cube.svg;rounded=0;glass=1;sketch=1;fillColor=#FFFFFF;gradientColor=none;" vertex="1" parent="UGMUUq8by2aVznE4F_mM-27">
          <mxGeometry x="-4.660000000000039" y="-19.439999999999998" width="37.333333333333336" height="41.48148148148149" as="geometry" />
        </mxCell>
        <mxCell id="UGMUUq8by2aVznE4F_mM-30" value="" style="aspect=fixed;perimeter=ellipsePerimeter;html=1;align=center;shadow=0;dashed=0;spacingTop=3;image;image=img/lib/active_directory/database_cube.svg;rounded=0;glass=1;sketch=1;fillColor=#FFFFFF;gradientColor=none;" vertex="1" parent="UGMUUq8by2aVznE4F_mM-54">
          <mxGeometry x="19.000000000000043" y="87.03999999999998" width="37.333333333333336" height="41.48148148148149" as="geometry" />
        </mxCell>
        <mxCell id="UGMUUq8by2aVznE4F_mM-31" value="" style="aspect=fixed;perimeter=ellipsePerimeter;html=1;align=center;shadow=0;dashed=0;spacingTop=3;image;image=img/lib/active_directory/database_cube.svg;rounded=0;glass=1;sketch=1;fillColor=#FFFFFF;gradientColor=none;" vertex="1" parent="UGMUUq8by2aVznE4F_mM-54">
          <mxGeometry x="4.340000000000039" y="114" width="37.333333333333336" height="41.48148148148149" as="geometry" />
        </mxCell>
        <mxCell id="UGMUUq8by2aVznE4F_mM-32" value="" style="aspect=fixed;perimeter=ellipsePerimeter;html=1;align=center;shadow=0;dashed=0;spacingTop=3;image;image=img/lib/active_directory/database_cube.svg;rounded=0;glass=1;sketch=1;fillColor=#FFFFFF;gradientColor=none;" vertex="1" parent="UGMUUq8by2aVznE4F_mM-54">
          <mxGeometry x="99" y="58.260000000000005" width="37.333333333333336" height="41.48148148148149" as="geometry" />
        </mxCell>
        <mxCell id="UGMUUq8by2aVznE4F_mM-33" value="" style="aspect=fixed;perimeter=ellipsePerimeter;html=1;align=center;shadow=0;dashed=0;spacingTop=3;image;image=img/lib/active_directory/database_cube.svg;rounded=0;glass=1;sketch=1;fillColor=#FFFFFF;gradientColor=none;" vertex="1" parent="UGMUUq8by2aVznE4F_mM-54">
          <mxGeometry x="61.670000000000044" y="45.56000000000001" width="37.333333333333336" height="41.48148148148149" as="geometry" />
        </mxCell>
        <mxCell id="UGMUUq8by2aVznE4F_mM-34" value="" style="aspect=fixed;perimeter=ellipsePerimeter;html=1;align=center;shadow=0;dashed=0;spacingTop=3;image;image=img/lib/active_directory/database_cube.svg;rounded=0;glass=1;sketch=1;fillColor=#FFFFFF;gradientColor=none;" vertex="1" parent="UGMUUq8by2aVznE4F_mM-54">
          <mxGeometry x="46.33" y="112.96000000000001" width="37.333333333333336" height="41.48148148148149" as="geometry" />
        </mxCell>
        <mxCell id="UGMUUq8by2aVznE4F_mM-35" value="" style="aspect=fixed;perimeter=ellipsePerimeter;html=1;align=center;shadow=0;dashed=0;spacingTop=3;image;image=img/lib/active_directory/database_cube.svg;rounded=0;glass=1;sketch=1;fillColor=#FFFFFF;gradientColor=none;" vertex="1" parent="UGMUUq8by2aVznE4F_mM-54">
          <mxGeometry x="55.33" y="74.26000000000002" width="37.333333333333336" height="41.48148148148149" as="geometry" />
        </mxCell>
        <mxCell id="UGMUUq8by2aVznE4F_mM-36" value="" style="aspect=fixed;perimeter=ellipsePerimeter;html=1;align=center;shadow=0;dashed=0;spacingTop=3;image;image=img/lib/active_directory/database_cube.svg;rounded=0;glass=1;sketch=1;fillColor=#FFFFFF;gradientColor=none;" vertex="1" parent="UGMUUq8by2aVznE4F_mM-54">
          <mxGeometry x="9" y="59.25999999999999" width="37.333333333333336" height="41.48148148148149" as="geometry" />
        </mxCell>
        <mxCell id="UGMUUq8by2aVznE4F_mM-37" value="" style="aspect=fixed;perimeter=ellipsePerimeter;html=1;align=center;shadow=0;dashed=0;spacingTop=3;image;image=img/lib/active_directory/database_cube.svg;rounded=0;glass=1;sketch=1;fillColor=#FFFFFF;gradientColor=none;" vertex="1" parent="UGMUUq8by2aVznE4F_mM-54">
          <mxGeometry x="105.33" y="30" width="37.333333333333336" height="41.48148148148149" as="geometry" />
        </mxCell>
        <mxCell id="UGMUUq8by2aVznE4F_mM-43" value="" style="aspect=fixed;perimeter=ellipsePerimeter;html=1;align=center;shadow=0;dashed=0;spacingTop=3;image;image=img/lib/active_directory/database_cube.svg;rounded=0;glass=1;sketch=1;fillColor=#FFFFFF;gradientColor=none;" vertex="1" parent="UGMUUq8by2aVznE4F_mM-54">
          <mxGeometry x="105.33" y="128.52" width="37.333333333333336" height="41.48148148148149" as="geometry" />
        </mxCell>
        <mxCell id="KqEfgamp2stA4gsS0LK4-19" value="" style="aspect=fixed;perimeter=ellipsePerimeter;html=1;align=center;shadow=0;dashed=0;spacingTop=3;image;image=img/lib/active_directory/database_cube.svg;rounded=0;glass=1;sketch=1;fillColor=#FFFFFF;gradientColor=none;" vertex="1" parent="UGMUUq8by2aVznE4F_mM-54">
          <mxGeometry x="24.340000000000003" y="30" width="37.333333333333336" height="41.48148148148149" as="geometry" />
        </mxCell>
        <mxCell id="Jpkzn7gbz8VPpbtmTspH-0" value="" style="aspect=fixed;html=1;points=[];align=center;image;fontSize=12;image=img/lib/azure2/containers/Container_Registries.svg;rounded=0;shadow=0;glass=1;sketch=0;strokeColor=#660066;fillColor=#FFFFFF;gradientColor=#B3B3B3;opacity=90;" vertex="1" parent="UGMUUq8by2aVznE4F_mM-54">
          <mxGeometry x="61.45" y="2" width="48.55" height="43.56" as="geometry" />
        </mxCell>
        <mxCell id="UGMUUq8by2aVznE4F_mM-55" style="edgeStyle=orthogonalEdgeStyle;rounded=0;orthogonalLoop=1;jettySize=auto;html=1;entryX=0.956;entryY=-0.05;entryDx=0;entryDy=0;entryPerimeter=0;" edge="1" parent="UGMUUq8by2aVznE4F_mM-59" target="ikQmyHIwPlXDHC7vOiAN-1">
          <mxGeometry relative="1" as="geometry">
            <mxPoint x="311" y="95" as="sourcePoint" />
            <Array as="points">
              <mxPoint x="411" y="95" />
            </Array>
          </mxGeometry>
        </mxCell>
        <mxCell id="UGMUUq8by2aVznE4F_mM-58" value="Pull&amp;nbsp; Image" style="edgeLabel;html=1;align=center;verticalAlign=middle;resizable=0;points=[];" vertex="1" connectable="0" parent="UGMUUq8by2aVznE4F_mM-55">
          <mxGeometry x="0.1095" y="3" relative="1" as="geometry">
            <mxPoint as="offset" />
          </mxGeometry>
        </mxCell>
        <mxCell id="UGMUUq8by2aVznE4F_mM-56" style="edgeStyle=orthogonalEdgeStyle;rounded=0;orthogonalLoop=1;jettySize=auto;html=1;entryX=0.736;entryY=1.1;entryDx=0;entryDy=0;entryPerimeter=0;" edge="1" parent="UGMUUq8by2aVznE4F_mM-59" source="UGMUUq8by2aVznE4F_mM-4" target="UGMUUq8by2aVznE4F_mM-29">
          <mxGeometry relative="1" as="geometry" />
        </mxCell>
        <mxCell id="UGMUUq8by2aVznE4F_mM-57" value="Search\" style="edgeLabel;html=1;align=center;verticalAlign=middle;resizable=0;points=[];" vertex="1" connectable="0" parent="UGMUUq8by2aVznE4F_mM-56">
          <mxGeometry x="0.1094" y="1" relative="1" as="geometry">
            <mxPoint as="offset" />
          </mxGeometry>
        </mxCell>
        <mxCell id="Apqh-002hFzDSMbJoLX--1" value="2" style="rounded=1;whiteSpace=wrap;html=1;fillColor=#007CBD;strokeColor=none;fontColor=#FFFFFF;fontStyle=1;fontSize=22;labelBackgroundColor=none;" vertex="1" parent="UGMUUq8by2aVznE4F_mM-59">
          <mxGeometry x="530" y="335" width="40" height="38" as="geometry" />
        </mxCell>
        <mxCell id="Apqh-002hFzDSMbJoLX--3" value="&lt;span&gt;&lt;b&gt;&lt;u&gt;Docker Engine:&amp;nbsp;&lt;/u&gt;&lt;/b&gt;&lt;/span&gt;Docker&lt;br&gt;Engine is an open source containerization technology for building and containerizing applications.&amp;nbsp;&lt;font face=&quot;Verdana&quot; style=&quot;font-size: 13px&quot;&gt;This consists of several components configured as a client-server implementation where the client and server run simultaneously on the same host. The client communicates with the server using a REST API, which allows the client to also communicate with a remote server instance.&lt;/font&gt;&lt;span style=&quot;font-size: 13px&quot;&gt;&lt;font face=&quot;Verdana&quot; style=&quot;font-weight: bold ; font-size: 13px&quot;&gt;&lt;font style=&quot;font-size: 13px&quot;&gt;&lt;br&gt;&lt;/font&gt;&lt;br&gt;&lt;/font&gt;&lt;span style=&quot;font-size: 13px&quot;&gt;&lt;u style=&quot;font-weight: bold&quot;&gt;Docker Host:-&lt;/u&gt;&lt;b&gt;&amp;nbsp;&lt;/b&gt;&amp;nbsp;&lt;/span&gt;&lt;/span&gt;a&amp;nbsp;physical computer system or virtual machine running Linux. This can be your&lt;br&gt;laptop, server or virtual machine in your data center, or computing resource&amp;nbsp;provided by a cloud provider. The component on the host that does the work of&lt;br&gt;building and running containers is the Docker Daemon.&lt;span style=&quot;font-size: 13px&quot;&gt;&lt;span style=&quot;font-size: 13px&quot;&gt;&lt;br&gt;&lt;/span&gt;&lt;br&gt;&lt;/span&gt;" style="text;html=1;align=left;verticalAlign=top;spacingTop=-4;fontSize=14;labelBackgroundColor=none;whiteSpace=wrap;" vertex="1" parent="UGMUUq8by2aVznE4F_mM-59">
          <mxGeometry x="590" y="27" width="430" height="253" as="geometry" />
        </mxCell>
        <mxCell id="GdCDaYij-Mtuch5lCMl2-3" value="4" style="rounded=1;whiteSpace=wrap;html=1;fillColor=#007CBD;strokeColor=none;fontColor=#FFFFFF;fontStyle=1;fontSize=22;labelBackgroundColor=none;" vertex="1" parent="UGMUUq8by2aVznE4F_mM-59">
          <mxGeometry x="170" y="373" width="40" height="37" as="geometry" />
        </mxCell>
        <mxCell id="GdCDaYij-Mtuch5lCMl2-4" value="5" style="rounded=1;whiteSpace=wrap;html=1;fillColor=#007CBD;strokeColor=none;fontColor=#FFFFFF;fontStyle=1;fontSize=22;labelBackgroundColor=none;" vertex="1" parent="UGMUUq8by2aVznE4F_mM-59">
          <mxGeometry x="330" y="147" width="40" height="37" as="geometry" />
        </mxCell>
        <mxCell id="KqEfgamp2stA4gsS0LK4-1" value="" style="group" vertex="1" connectable="0" parent="UGMUUq8by2aVznE4F_mM-59">
          <mxGeometry x="530" y="48" width="445" height="80" as="geometry" />
        </mxCell>
        <mxCell id="Apqh-002hFzDSMbJoLX--0" value="1" style="rounded=1;whiteSpace=wrap;html=1;fillColor=#007CBD;strokeColor=none;fontColor=#FFFFFF;fontStyle=1;fontSize=22;labelBackgroundColor=none;" vertex="1" parent="KqEfgamp2stA4gsS0LK4-1">
          <mxGeometry width="40" height="37" as="geometry" />
        </mxCell>
        <mxCell id="KqEfgamp2stA4gsS0LK4-5" value="&lt;span&gt;&lt;u&gt;&lt;b&gt;Docker Image:-&amp;nbsp;&lt;/b&gt;&lt;/u&gt;&lt;/span&gt;is a standard unit of shippable software that packages up code and all its dependencies&amp;nbsp;" style="text;html=1;align=left;verticalAlign=top;spacingTop=-4;fontSize=14;labelBackgroundColor=none;whiteSpace=wrap;" vertex="1" parent="UGMUUq8by2aVznE4F_mM-59">
          <mxGeometry x="590" y="425" width="470" height="70" as="geometry" />
        </mxCell>
        <mxCell id="KqEfgamp2stA4gsS0LK4-12" value="&lt;b&gt;&lt;u&gt;Docker Image Registry:-&lt;/u&gt;&amp;nbsp;&lt;/b&gt;It is repository where we store and distribute the container images we create&lt;br&gt;&lt;br&gt;Public image Repository is Docker Hub&amp;nbsp; which is SaaS Docker container registry.&lt;br&gt;&lt;br&gt;In Cloud ,&amp;nbsp; Azure will provide private registry to store docker images on cloud that is called Azure Container Registry (ACR)&amp;nbsp; It will save ingress &amp;amp; Egress network costs" style="text;html=1;align=left;verticalAlign=top;spacingTop=-4;fontSize=14;labelBackgroundColor=none;whiteSpace=wrap;" vertex="1" parent="UGMUUq8by2aVznE4F_mM-59">
          <mxGeometry x="600" y="610" width="460" height="150" as="geometry" />
        </mxCell>
        <mxCell id="KqEfgamp2stA4gsS0LK4-15" value="&lt;span&gt;&lt;b&gt;&lt;u&gt;Docker Container:-&amp;nbsp;&lt;/u&gt;&lt;/b&gt;&lt;/span&gt;A&amp;nbsp;container is running instance of image( standard unit of software that packages up code and all its dependencies) so the application runs quickly and reliably from one computing&amp;nbsp;environment to another" style="text;html=1;align=left;verticalAlign=top;spacingTop=-4;fontSize=14;labelBackgroundColor=none;whiteSpace=wrap;" vertex="1" parent="UGMUUq8by2aVznE4F_mM-59">
          <mxGeometry x="595" y="500" width="460" height="80" as="geometry" />
        </mxCell>
        <mxCell id="KqEfgamp2stA4gsS0LK4-4" value="3" style="rounded=1;whiteSpace=wrap;html=1;fillColor=#007CBD;strokeColor=none;fontColor=#FFFFFF;fontStyle=1;fontSize=22;labelBackgroundColor=none;" vertex="1" parent="UGMUUq8by2aVznE4F_mM-59">
          <mxGeometry x="530" y="428" width="40" height="37" as="geometry" />
        </mxCell>
        <mxCell id="KqEfgamp2stA4gsS0LK4-8" value="5" style="rounded=1;whiteSpace=wrap;html=1;fillColor=#007CBD;strokeColor=none;fontColor=#FFFFFF;fontStyle=1;fontSize=22;labelBackgroundColor=none;" vertex="1" parent="UGMUUq8by2aVznE4F_mM-59">
          <mxGeometry x="530" y="630" width="40" height="37" as="geometry" />
        </mxCell>
        <mxCell id="Apqh-002hFzDSMbJoLX--2" value="&lt;u style=&quot;font-weight: bold&quot;&gt;Dockerfile:-&lt;/u&gt;&amp;nbsp; This is plain text file with set of instructions&amp;nbsp; how to create container image.&lt;br&gt;It uses set of keyword to create image in Layered architecture.&lt;br&gt;It also support multi stages" style="text;html=1;align=left;verticalAlign=top;spacingTop=-4;fontSize=14;labelBackgroundColor=none;whiteSpace=wrap;" vertex="1" parent="UGMUUq8by2aVznE4F_mM-59">
          <mxGeometry x="590" y="311" width="430" height="80" as="geometry" />
        </mxCell>
        <mxCell id="KqEfgamp2stA4gsS0LK4-11" value="4" style="rounded=1;whiteSpace=wrap;html=1;fillColor=#007CBD;strokeColor=none;fontColor=#FFFFFF;fontStyle=1;fontSize=22;labelBackgroundColor=none;" vertex="1" parent="UGMUUq8by2aVznE4F_mM-59">
          <mxGeometry x="530" y="510" width="40" height="37" as="geometry" />
        </mxCell>
        <mxCell id="GdCDaYij-Mtuch5lCMl2-0" value="1" style="rounded=1;whiteSpace=wrap;html=1;fillColor=#007CBD;strokeColor=none;fontColor=#FFFFFF;fontStyle=1;fontSize=22;labelBackgroundColor=none;" vertex="1" parent="ZIVqKfLvt1eOMZWE84N--1">
          <mxGeometry x="436" y="452" width="40" height="38" as="geometry" />
        </mxCell>
        <mxCell id="GdCDaYij-Mtuch5lCMl2-8" value="3" style="rounded=1;whiteSpace=wrap;html=1;fillColor=#007CBD;strokeColor=none;fontColor=#FFFFFF;fontStyle=1;fontSize=22;labelBackgroundColor=none;" vertex="1" parent="ZIVqKfLvt1eOMZWE84N--1">
          <mxGeometry x="425" y="205" width="40" height="37" as="geometry" />
        </mxCell>
        <mxCell id="UGMUUq8by2aVznE4F_mM-19" style="edgeStyle=orthogonalEdgeStyle;rounded=0;orthogonalLoop=1;jettySize=auto;html=1;entryX=0.547;entryY=-0.021;entryDx=0;entryDy=0;entryPerimeter=0;" edge="1" parent="ZIVqKfLvt1eOMZWE84N--1" source="UGMUUq8by2aVznE4F_mM-12" target="ikQmyHIwPlXDHC7vOiAN-3">
          <mxGeometry relative="1" as="geometry">
            <mxPoint x="250" y="350" as="targetPoint" />
            <Array as="points">
              <mxPoint x="270" y="480" />
              <mxPoint x="270" y="390" />
              <mxPoint x="260" y="390" />
              <mxPoint x="260" y="350" />
              <mxPoint x="122" y="350" />
            </Array>
          </mxGeometry>
        </mxCell>
        <mxCell id="UGMUUq8by2aVznE4F_mM-20" value="Get&amp;nbsp; docker file" style="edgeLabel;html=1;align=center;verticalAlign=middle;resizable=0;points=[];" vertex="1" connectable="0" parent="UGMUUq8by2aVznE4F_mM-19">
          <mxGeometry x="-0.3158" y="-2" relative="1" as="geometry">
            <mxPoint x="15" y="-88" as="offset" />
          </mxGeometry>
        </mxCell>
        <mxCell id="UGMUUq8by2aVznE4F_mM-21" value="Get Docker file" style="edgeLabel;html=1;align=center;verticalAlign=middle;resizable=0;points=[];" vertex="1" connectable="0" parent="UGMUUq8by2aVznE4F_mM-19">
          <mxGeometry x="0.2311" y="4" relative="1" as="geometry">
            <mxPoint as="offset" />
          </mxGeometry>
        </mxCell>
        <mxCell id="jURyY4a_DSkN0sJgzrrD-0" value="" style="group" vertex="1" connectable="0" parent="ZIVqKfLvt1eOMZWE84N--1">
          <mxGeometry x="40" y="380" width="150" height="210" as="geometry" />
        </mxCell>
        <mxCell id="ikQmyHIwPlXDHC7vOiAN-8" value="" style="shape=image;html=1;verticalAlign=top;verticalLabelPosition=bottom;labelBackgroundColor=#ffffff;imageAspect=0;aspect=fixed;image=https://cdn3.iconfinder.com/data/icons/social-rounded-2/72/GitHub-128.png;rounded=0;shadow=0;glass=1;sketch=0;fillColor=none;gradientColor=none;" vertex="1" parent="jURyY4a_DSkN0sJgzrrD-0">
          <mxGeometry x="50" y="130" width="50" height="50" as="geometry" />
        </mxCell>
        <mxCell id="GdCDaYij-Mtuch5lCMl2-5" value="2" style="rounded=1;whiteSpace=wrap;html=1;fillColor=#007CBD;strokeColor=none;fontColor=#FFFFFF;fontStyle=1;fontSize=22;labelBackgroundColor=none;" vertex="1" parent="jURyY4a_DSkN0sJgzrrD-0">
          <mxGeometry x="90" y="82.5" width="40" height="37" as="geometry" />
        </mxCell>
        <mxCell id="ikQmyHIwPlXDHC7vOiAN-3" value="" style="shape=cylinder3;whiteSpace=wrap;html=1;boundedLbl=1;backgroundOutline=1;size=15;rounded=0;shadow=0;glass=1;sketch=0;strokeColor=#006EAF;fontColor=#ffffff;fillColor=none;" vertex="1" parent="jURyY4a_DSkN0sJgzrrD-0">
          <mxGeometry width="150" height="190" as="geometry" />
        </mxCell>
        <mxCell id="GdCDaYij-Mtuch5lCMl2-6" value="Source Code Repository" style="text;html=1;resizable=0;autosize=1;align=center;verticalAlign=middle;points=[];fillColor=none;strokeColor=none;rounded=0;shadow=0;glass=1;sketch=0;opacity=90;" vertex="1" parent="jURyY4a_DSkN0sJgzrrD-0">
          <mxGeometry x="1.4210854715202004e-14" y="190" width="150" height="20" as="geometry" />
        </mxCell>
      </root>
    </mxGraphModel>
  </diagram>
  <diagram id="bfmz1167DeC-veP-wz8F" name="DockerEngine">
    <mxGraphModel dx="1551" dy="828" grid="1" gridSize="10" guides="1" tooltips="1" connect="1" arrows="1" fold="1" page="1" pageScale="1" pageWidth="850" pageHeight="1100" math="0" shadow="0">
      <root>
        <mxCell id="Y0Zw5e-dgmVh06KQSFHx-0" />
        <mxCell id="Y0Zw5e-dgmVh06KQSFHx-1" parent="Y0Zw5e-dgmVh06KQSFHx-0" />
        <mxCell id="G9pZj8D83YNotjqaiWlM-1" value="" style="outlineConnect=0;dashed=0;verticalLabelPosition=bottom;verticalAlign=top;align=center;html=1;shape=mxgraph.aws3.ec2_compute_container;fillColor=#F58534;gradientColor=none;rounded=0;shadow=0;glass=1;sketch=0;strokeColor=#660066;opacity=90;" vertex="1" parent="Y0Zw5e-dgmVh06KQSFHx-1">
          <mxGeometry x="380" y="200" width="60" height="34.5" as="geometry" />
        </mxCell>
        <mxCell id="G9pZj8D83YNotjqaiWlM-4" value="" style="aspect=fixed;html=1;points=[];align=center;image;fontSize=12;image=img/lib/azure2/containers/Container_Registries.svg;rounded=0;shadow=0;glass=1;sketch=0;strokeColor=#660066;fillColor=#FFFFFF;gradientColor=#B3B3B3;opacity=90;" vertex="1" parent="Y0Zw5e-dgmVh06KQSFHx-1">
          <mxGeometry x="350" y="390" width="68" height="61" as="geometry" />
        </mxCell>
      </root>
    </mxGraphModel>
  </diagram>
</mxfile>
